<svg width="24" height="24" viewBox="0 0 24 24" fill="none" xmlns="http://www.w3.org/2000/svg">
<g clip-path="url(#clip0_779_2910)">
<path d="M4.66602 10.6665H11.9993V11.7332H4.66602V10.6665Z" fill="url(#paint0_linear_779_2910)"/>
<path d="M4.66602 15.3335H11.3327V16.4002H4.66602V15.3335Z" fill="url(#paint1_linear_779_2910)"/>
<path d="M18.3069 11.4865C17.4538 11.4797 16.6184 11.7304 15.9101 12.2059C15.2017 12.6814 14.6533 13.3595 14.3365 14.1516C14.0196 14.9438 13.9491 15.813 14.1341 16.6459C14.3191 17.4787 14.7511 18.2363 15.3735 18.8198L14.0802 20.3998L14.6802 22.8065L17.1202 19.8331C17.8926 20.0615 18.7145 20.0615 19.4869 19.8331L21.9269 22.8065L22.5269 20.3998L21.2335 18.8198C21.856 18.2363 22.2879 17.4787 22.473 16.6459C22.658 15.813 22.5875 14.9438 22.2706 14.1516C21.9538 13.3595 21.4053 12.6814 20.697 12.2059C19.9886 11.7304 19.1533 11.4797 18.3002 11.4865H18.3069ZM18.3069 18.6065C17.7403 18.5986 17.1888 18.4234 16.7216 18.1029C16.2544 17.7824 15.8923 17.331 15.6809 16.8053C15.4696 16.2796 15.4184 15.7032 15.5337 15.1485C15.6491 14.5937 15.9258 14.0855 16.3292 13.6877C16.7326 13.2898 17.2446 13.0201 17.8009 12.9124C18.3571 12.8048 18.9328 12.864 19.4555 13.0826C19.9782 13.3012 20.4246 13.6694 20.7386 14.141C21.0526 14.6126 21.2201 15.1666 21.2202 15.7331C21.2132 16.4999 20.9027 17.2327 20.3567 17.7712C19.8107 18.3097 19.0737 18.61 18.3069 18.6065Z" fill="url(#paint2_linear_779_2910)"/>
<path d="M12.666 9.04C12.4941 8.71906 12.3961 8.36371 12.3793 8H4.66602V9.06667H12.7127L12.666 9.04Z" fill="url(#paint3_linear_779_2910)"/>
<path d="M22.454 10.2666H21.334V11.0399C21.8405 11.3677 22.2908 11.7752 22.6673 12.2466V10.2466L22.454 10.2666Z" fill="url(#paint4_linear_779_2910)"/>
<path d="M2.66732 18.6667V5.33333H13.4273L14.194 4H2.66732C2.3137 4 1.97456 4.14048 1.72451 4.39052C1.47446 4.64057 1.33398 4.97971 1.33398 5.33333V18.6667C1.33398 19.0203 1.47446 19.3594 1.72451 19.6095C1.97456 19.8595 2.3137 20 2.66732 20H12.6673L13.0473 19.5333L13.6673 18.7733L13.6073 18.6667H2.66732Z" fill="url(#paint5_linear_779_2910)"/>
<path d="M17.9009 0.760039L14.0876 7.33337C13.9989 7.46359 13.9479 7.61583 13.9404 7.77322C13.9329 7.93061 13.9691 8.08701 14.0451 8.22507C14.121 8.36314 14.2337 8.47748 14.3706 8.55543C14.5076 8.63338 14.6634 8.6719 14.8209 8.66671H22.4542C22.6117 8.6719 22.7676 8.63338 22.9045 8.55543C23.0414 8.47748 23.1541 8.36314 23.2301 8.22507C23.306 8.08701 23.3422 7.93061 23.3347 7.77322C23.3272 7.61583 23.2763 7.46359 23.1876 7.33337L19.3742 0.760039C19.299 0.631409 19.1915 0.524713 19.0622 0.450565C18.933 0.376417 18.7866 0.337402 18.6376 0.337402C18.4886 0.337402 18.3422 0.376417 18.2129 0.450565C18.0837 0.524713 17.9761 0.631409 17.9009 0.760039Z" fill="url(#paint6_linear_779_2910)"/>
</g>
<defs>
<linearGradient id="paint0_linear_779_2910" x1="4.66602" y1="11.1998" x2="11.9993" y2="11.1998" gradientUnits="userSpaceOnUse">
<stop stop-color="#001FCC"/>
<stop offset="1" stop-color="#9D00FF"/>
</linearGradient>
<linearGradient id="paint1_linear_779_2910" x1="4.66602" y1="15.8668" x2="11.3327" y2="15.8668" gradientUnits="userSpaceOnUse">
<stop stop-color="#001FCC"/>
<stop offset="1" stop-color="#9D00FF"/>
</linearGradient>
<linearGradient id="paint2_linear_779_2910" x1="14.0332" y1="17.1464" x2="22.5739" y2="17.1464" gradientUnits="userSpaceOnUse">
<stop stop-color="#001FCC"/>
<stop offset="1" stop-color="#9D00FF"/>
</linearGradient>
<linearGradient id="paint3_linear_779_2910" x1="4.66602" y1="8.53333" x2="12.7127" y2="8.53333" gradientUnits="userSpaceOnUse">
<stop stop-color="#001FCC"/>
<stop offset="1" stop-color="#9D00FF"/>
</linearGradient>
<linearGradient id="paint4_linear_779_2910" x1="21.334" y1="11.2466" x2="22.6673" y2="11.2466" gradientUnits="userSpaceOnUse">
<stop stop-color="#001FCC"/>
<stop offset="1" stop-color="#9D00FF"/>
</linearGradient>
<linearGradient id="paint5_linear_779_2910" x1="1.33398" y1="12" x2="14.194" y2="12" gradientUnits="userSpaceOnUse">
<stop stop-color="#001FCC"/>
<stop offset="1" stop-color="#9D00FF"/>
</linearGradient>
<linearGradient id="paint6_linear_779_2910" x1="13.9395" y1="4.50229" x2="23.3357" y2="4.50229" gradientUnits="userSpaceOnUse">
<stop stop-color="#001FCC"/>
<stop offset="1" stop-color="#9D00FF"/>
</linearGradient>
<clipPath id="clip0_779_2910">
<rect width="24" height="24" fill="white"/>
</clipPath>
</defs>
</svg>
