<svg width="32" height="32" viewBox="0 0 32 32" fill="none" xmlns="http://www.w3.org/2000/svg">
<g clip-path="url(#clip0_101_1200)">
<path d="M18.6663 10.6667H6.2219C5.98615 10.6667 5.76006 10.573 5.59336 10.4063C5.42666 10.2396 5.33301 10.0135 5.33301 9.77777V6.22222C5.33301 5.98647 5.42666 5.76038 5.59336 5.59368C5.76006 5.42698 5.98615 5.33333 6.2219 5.33333H18.6663C18.9021 5.33333 19.1282 5.42698 19.2949 5.59368C19.4616 5.76038 19.5552 5.98647 19.5552 6.22222V9.77777C19.5552 10.0135 19.4616 10.2396 19.2949 10.4063C19.1282 10.573 18.9021 10.6667 18.6663 10.6667ZM7.11079 8.88888H17.7775V7.05777H7.11079V8.88888Z" fill="#31353B"/>
<path d="M18.6663 12.5155H6.2219C5.98615 12.5155 5.76006 12.6092 5.59336 12.7759C5.42666 12.9426 5.33301 13.1687 5.33301 13.4044V16.8889C5.33301 17.1246 5.42666 17.3507 5.59336 17.5174C5.76006 17.6841 5.98615 17.7778 6.2219 17.7778H16.3197L19.5552 14.4889V13.4044C19.5552 13.1687 19.4616 12.9426 19.2949 12.7759C19.1282 12.6092 18.9021 12.5155 18.6663 12.5155ZM17.7775 16H7.11079V14.2222H17.7775V16Z" fill="#31353B"/>
<path d="M9.83068 28.0089V27.9555L10.1151 26.72H3.55512V3.55555H21.3329V12.6667L23.1107 10.9867V2.66666C23.1107 2.43091 23.017 2.20482 22.8503 2.03812C22.6836 1.87142 22.4575 1.77777 22.2218 1.77777H2.66623C2.43048 1.77777 2.20439 1.87142 2.03769 2.03812C1.87099 2.20482 1.77734 2.43091 1.77734 2.66666V27.5555C1.77734 27.7913 1.87099 28.0174 2.03769 28.1841C2.20439 28.3508 2.43048 28.4444 2.66623 28.4444H9.77734C9.78454 28.2982 9.80237 28.1526 9.83068 28.0089Z" fill="#31353B"/>
<path d="M19.5556 17.04L18.8623 17.7422C19.0343 17.7068 19.192 17.6211 19.3154 17.4962C19.4388 17.3712 19.5224 17.2125 19.5556 17.04Z" fill="#31353B"/>
<path d="M5.33301 23.9467C5.33301 24.1824 5.42666 24.4085 5.59336 24.5752C5.76006 24.7419 5.98615 24.8356 6.2219 24.8356H10.5241L10.7908 23.68L10.9063 23.1911V23.1467H7.11079V21.3333H12.7463L14.5241 19.5556H6.2219C5.98615 19.5556 5.76006 19.6492 5.59336 19.8159C5.42666 19.9826 5.33301 20.2087 5.33301 20.4444V23.9467Z" fill="#31353B"/>
<path d="M29.7685 14.8178L26.773 11.8222C26.64 11.6889 26.4821 11.5832 26.3082 11.511C26.1343 11.4388 25.9479 11.4017 25.7597 11.4017C25.5714 11.4017 25.385 11.4388 25.2111 11.511C25.0372 11.5832 24.8793 11.6889 24.7463 11.8222L12.5597 24.08L11.5552 28.3556C11.5176 28.54 11.5168 28.7301 11.5527 28.9149C11.5887 29.0996 11.6608 29.2755 11.7648 29.4324C11.8688 29.5893 12.0028 29.7241 12.159 29.8291C12.3153 29.9341 12.4907 30.0073 12.6752 30.0444C12.7668 30.0534 12.8591 30.0534 12.9508 30.0444C13.0597 30.0614 13.1707 30.0614 13.2797 30.0444L17.5908 29.0933L29.7685 16.8889C29.9016 16.7567 30.0072 16.5995 30.0792 16.4264C30.1513 16.2532 30.1883 16.0675 30.1883 15.88C30.1883 15.6925 30.1513 15.5068 30.0792 15.3336C30.0072 15.1605 29.9016 15.0033 29.7685 14.8711V14.8178ZM16.6841 27.4756L13.4308 28.1956L14.2219 24.9689L23.3597 15.7333L25.8663 18.24L16.6841 27.4756ZM26.8708 17.2356L24.3641 14.7289L25.7774 13.3333L28.3019 15.8578L26.8708 17.2356Z" fill="#31353B"/>
</g>
<defs>
<clipPath id="clip0_101_1200">
<rect width="32" height="32" fill="white"/>
</clipPath>
</defs>
</svg>
