<svg width="32" height="32" viewBox="0 0 32 32" fill="none" xmlns="http://www.w3.org/2000/svg">
<g clip-path="url(#clip0_368_1859)">
<path d="M30.0711 20.9688C30.0735 20.0316 29.8432 19.1084 29.4009 18.2821C28.9585 17.4558 28.318 16.7522 27.5367 16.2345C26.7554 15.7168 25.8578 15.4011 24.9245 15.3158C23.9911 15.2304 23.0512 15.3781 22.189 15.7456C21.3268 16.113 20.5693 16.6888 19.9844 17.4211C19.3995 18.1535 19.0056 19.0196 18.838 19.9418C18.6704 20.8639 18.7343 21.8132 19.024 22.7046C19.3136 23.5959 19.8201 24.4014 20.4978 25.0488L18.7734 27.1555L19.5734 30.3644L22.8267 26.3999C23.8565 26.7044 24.9524 26.7044 25.9822 26.3999L29.2356 30.3644L30.0356 27.1555L28.3111 25.0488C28.8657 24.5235 29.3077 23.891 29.6102 23.1896C29.9128 22.4882 30.0696 21.7327 30.0711 20.9688ZM20.5245 20.9688C20.5139 20.1984 20.7327 19.4422 21.153 18.7964C21.5734 18.1506 22.1763 17.6445 22.8851 17.3423C23.5939 17.0401 24.3765 16.9555 25.1335 17.0993C25.8905 17.2431 26.5876 17.6088 27.1362 18.1499C27.6848 18.6909 28.0601 19.3829 28.2143 20.1378C28.3686 20.8928 28.2949 21.6765 28.0025 22.3894C27.7101 23.1023 27.2123 23.7122 26.5724 24.1414C25.9325 24.5706 25.1794 24.7999 24.4089 24.7999C23.388 24.8023 22.4076 24.4009 21.6815 23.6831C20.9555 22.9654 20.5427 21.9897 20.5334 20.9688H20.5245Z" fill="url(#paint0_linear_368_1859)"/>
<path d="M29.9378 13.689H26C27.6729 14.0642 29.1646 15.0063 30.2222 16.3556V13.689H29.9378Z" fill="url(#paint1_linear_368_1859)"/>
<path d="M16.9512 12.0888H6.22228V10.6666H16.5067C16.4437 10.0172 16.5769 9.36393 16.8889 8.79103L18.9245 5.33325H3.55561C3.08411 5.33325 2.63193 5.52055 2.29853 5.85395C1.96513 6.18735 1.77783 6.63953 1.77783 7.11103V24.8888C1.77783 25.3603 1.96513 25.8125 2.29853 26.1459C2.63193 26.4793 3.08411 26.6666 3.55561 26.6666H16.8889L17.3956 26.0444L18.2223 25.031C17.5556 24.0272 17.1438 22.876 17.0223 21.6771C16.9008 20.4782 17.0735 19.2678 17.5252 18.1506C17.977 17.0335 18.6942 16.0433 19.6149 15.2659C20.5356 14.4884 21.6319 13.9471 22.8089 13.6888H19.7601C19.1934 13.6883 18.6366 13.5405 18.1442 13.26C17.6518 12.9795 17.2407 12.576 16.9512 12.0888ZM15.1112 21.8666H6.22228V20.4444H15.1112V21.8666ZM16.0001 15.6444H6.22228V14.2221H16.0001V15.6444Z" fill="url(#paint2_linear_368_1859)"/>
<path d="M23.8666 1.01322L18.7822 9.77767C18.6639 9.95129 18.596 10.1543 18.586 10.3641C18.576 10.574 18.6243 10.7825 18.7256 10.9666C18.8268 11.1507 18.977 11.3031 19.1596 11.4071C19.3422 11.511 19.55 11.5624 19.76 11.5554H29.9378C30.1477 11.5624 30.3555 11.511 30.5381 11.4071C30.7207 11.3031 30.8709 11.1507 30.9722 10.9666C31.0734 10.7825 31.1217 10.574 31.1117 10.3641C31.1017 10.1543 31.0338 9.95129 30.9155 9.77767L25.8311 1.01322C25.7308 0.841716 25.5874 0.699454 25.4151 0.60059C25.2427 0.501727 25.0475 0.449707 24.8489 0.449707C24.6502 0.449707 24.455 0.501727 24.2827 0.60059C24.1104 0.699454 23.9669 0.841716 23.8666 1.01322Z" fill="url(#paint3_linear_368_1859)"/>
</g>
<defs>
<linearGradient id="paint0_linear_368_1859" x1="18.7467" y1="22.8283" x2="30.0712" y2="22.8283" gradientUnits="userSpaceOnUse">
<stop stop-color="#001FCC"/>
<stop offset="1" stop-color="#9D00FF"/>
</linearGradient>
<linearGradient id="paint1_linear_368_1859" x1="26" y1="15.0223" x2="30.2222" y2="15.0223" gradientUnits="userSpaceOnUse">
<stop stop-color="#001FCC"/>
<stop offset="1" stop-color="#9D00FF"/>
</linearGradient>
<linearGradient id="paint2_linear_368_1859" x1="1.77783" y1="15.9999" x2="22.8089" y2="15.9999" gradientUnits="userSpaceOnUse">
<stop stop-color="#001FCC"/>
<stop offset="1" stop-color="#9D00FF"/>
</linearGradient>
<linearGradient id="paint3_linear_368_1859" x1="18.5847" y1="6.00288" x2="31.113" y2="6.00288" gradientUnits="userSpaceOnUse">
<stop stop-color="#001FCC"/>
<stop offset="1" stop-color="#9D00FF"/>
</linearGradient>
<clipPath id="clip0_368_1859">
<rect width="32" height="32" fill="white"/>
</clipPath>
</defs>
</svg>
