<svg width="174" height="39" viewBox="0 0 174 39" fill="none" xmlns="http://www.w3.org/2000/svg">
<g clip-path="url(#clip0_7220_12063)">
<path d="M50.203 20.282C50.2376 19.6158 50.2376 18.9482 50.203 18.282H12.254C12.246 18.448 12.239 18.615 12.235 18.782H4.285L4.281 19.032H0V19.532H4.28L4.286 19.782H12.235C12.239 19.95 12.245 20.116 12.255 20.282H23.15C23.1086 19.9503 23.0879 19.6163 23.088 19.282H39.088C39.088 19.621 39.068 19.955 39.026 20.282H50.203ZM50.124 17.282H38.837C38.7492 16.9417 38.639 16.6077 38.507 16.282H23.672C23.541 16.606 23.43 16.939 23.342 17.282H12.332C12.35 17.115 12.37 16.948 12.392 16.782H4.442L4.476 16.538H0V16.038H4.555L4.601 15.782H12.551C12.581 15.615 12.615 15.448 12.651 15.282H49.807C49.947 15.937 50.054 16.604 50.124 17.282ZM49.564 14.282H37.334C37.0456 13.922 36.7267 13.5874 36.381 13.282H25.797C25.452 13.588 25.132 13.922 24.844 14.282H12.894C12.939 14.115 12.987 13.948 13.037 13.782H5.087L5.175 13.501H0V13H5.342L5.42 12.781H13.37C13.43 12.613 13.494 12.447 13.56 12.281H48.897C49.155 12.931 49.378 13.6 49.564 14.282ZM48.467 11.282H13.99C14.068 11.114 14.148 10.948 14.231 10.782H6.282L6.423 10.506H0V10.006H6.694L6.821 9.782H14.771C14.868 9.614 14.968 9.447 15.07 9.282H47.387C47.785 9.924 48.147 10.592 48.467 11.282ZM12.332 21.282H50.125C50.054 21.96 49.947 22.628 49.807 23.282H38.019C38.204 22.962 38.368 22.628 38.508 22.282H23.67C23.81 22.628 23.973 22.962 24.158 23.282H12.65C12.6144 23.1158 12.5811 22.9491 12.55 22.782H4.601C4.58471 22.6941 4.56905 22.6061 4.554 22.518H0V22.018H4.475C4.46352 21.9394 4.45252 21.8607 4.442 21.782H12.392C12.3698 21.6156 12.3498 21.4489 12.332 21.282ZM12.893 24.282H49.563C49.378 24.965 49.155 25.632 48.897 26.282H34.965C35.4717 26.0007 35.9465 25.6655 36.381 25.282H25.797C26.2315 25.6655 26.7063 26.0007 27.213 26.282H13.56C13.4944 26.1162 13.431 25.9495 13.37 25.782H5.42L5.334 25.541H0V25.041H5.168C5.14072 24.9549 5.11406 24.8685 5.088 24.782H13.037C12.987 24.616 12.939 24.45 12.893 24.282ZM13.99 27.282H48.467C48.1473 27.9697 47.7867 28.6375 47.387 29.282H15.07C14.9674 29.1169 14.8674 28.9502 14.77 28.782H6.821C6.771 28.696 6.722 28.61 6.674 28.523H0V28.023H6.405L6.282 27.783H14.232C14.1489 27.6175 14.0682 27.4508 13.99 27.283V27.282ZM16.92 31.782C17.067 31.952 17.218 32.118 17.372 32.282H45.085C45.6752 31.6531 46.2221 30.9849 46.722 30.282H15.735C15.855 30.451 15.977 30.618 16.103 30.782H8.153L8.351 31.037H0V31.537H8.76C8.829 31.62 8.899 31.701 8.97 31.782H16.92ZM20.237 34.782C20.48 34.955 20.727 35.122 20.977 35.282H41.48C42.4004 34.6909 43.2683 34.0218 44.074 33.282H18.384C18.569 33.452 18.758 33.619 18.95 33.782H11C11.108 33.874 11.217 33.964 11.327 34.052H0V34.552H11.972C12.076 34.63 12.182 34.707 12.288 34.782H20.238H20.237ZM27.254 37.866C28.536 38.139 29.865 38.282 31.228 38.282C34.282 38.282 37.167 37.562 39.723 36.282H22.733C23.089 36.46 23.45 36.627 23.817 36.782H15.867C16.009 36.842 16.152 36.901 16.295 36.958H0V37.458H17.725C19.482 37.994 21.347 38.282 23.279 38.282C24.642 38.282 25.972 38.139 27.254 37.866ZM15.735 8.282H46.722C46.2221 7.57912 45.6752 6.91092 45.085 6.282H17.372C17.218 6.446 17.067 6.612 16.919 6.782H8.97L8.794 6.988H0V7.488H8.382C8.305 7.585 8.229 7.683 8.154 7.782H16.103C15.977 7.947 15.855 8.114 15.735 8.282ZM18.383 5.282H44.073C43.2676 4.54225 42.4001 3.87312 41.48 3.282H20.977C20.727 3.443 20.48 3.61 20.237 3.782H12.288C12.178 3.861 12.068 3.94 11.96 4.021H0V4.521H11.316C11.21 4.607 11.105 4.694 11.001 4.782H18.95C18.758 4.945 18.569 5.112 18.383 5.282ZM22.734 2.282H39.724C37.0869 0.962435 34.1778 0.27755 31.229 0.282C29.865 0.282 28.536 0.426 27.254 0.699C25.9473 0.421201 24.6149 0.281434 23.279 0.282C21.145 0.282 19.094 0.634 17.179 1.282H0V1.782H23.817C23.4508 1.93722 23.0896 2.10397 22.734 2.282ZM111.248 0C111.905 0 112.421 0.164 112.796 0.492C113.187 0.805 113.382 1.242 113.382 1.806C113.382 2.369 113.187 2.814 112.796 3.142C112.421 3.455 111.905 3.612 111.248 3.612C110.592 3.612 110.068 3.455 109.677 3.142C109.302 2.814 109.114 2.369 109.114 1.806C109.114 1.243 109.302 0.806 109.677 0.492C110.068 0.164 110.592 0 111.248 0ZM113.077 5.792V15.993C113.077 16.65 113.187 17.096 113.406 17.33C113.64 17.565 114.031 17.682 114.578 17.682V18.174C114.141 18.1526 113.703 18.137 113.265 18.127C112.664 18.0955 112.061 18.0799 111.459 18.08C110.85 18.08 110.232 18.096 109.607 18.127C109.138 18.1373 108.669 18.153 108.2 18.174V17.682C108.747 17.682 109.13 17.565 109.349 17.33C109.583 17.096 109.701 16.65 109.701 15.993V8.606C109.701 7.903 109.591 7.386 109.372 7.059C109.169 6.715 108.778 6.543 108.2 6.543V6.05C108.7 6.097 109.185 6.12 109.654 6.12C110.31 6.12 110.92 6.097 111.483 6.05C112.061 5.988 112.593 5.902 113.077 5.792Z" fill="#2F2352"/>
<path fill-rule="evenodd" clip-rule="evenodd" d="M119.677 7.94403V5.79203C119.193 5.90203 118.661 5.98803 118.083 6.05003C117.504 6.09703 116.894 6.12003 116.253 6.12003C115.784 6.12003 115.3 6.09703 114.799 6.05003V6.54303C115.362 6.54303 115.753 6.71503 115.972 7.05903C116.191 7.38703 116.3 7.90303 116.3 8.60603V20.332C116.3 20.957 116.191 21.379 115.972 21.598C115.769 21.817 115.409 21.926 114.893 21.926V22.419L116.136 22.349C116.706 22.3331 117.277 22.3251 117.848 22.325C118.645 22.325 119.396 22.333 120.099 22.348C120.818 22.38 121.381 22.403 121.788 22.418V21.926C121.131 21.926 120.615 21.801 120.24 21.551C119.865 21.317 119.677 20.832 119.677 20.097V17.747C119.883 17.919 120.125 18.061 120.404 18.174C120.904 18.394 121.459 18.503 122.069 18.503C122.898 18.503 123.64 18.354 124.297 18.057C124.965 17.7633 125.552 17.3129 126.009 16.744C126.493 16.15 126.861 15.423 127.111 14.563C127.377 13.703 127.51 12.703 127.51 11.561C127.51 10.264 127.322 9.18503 126.947 8.32503C126.572 7.44903 126.071 6.80103 125.446 6.37903C124.821 5.94127 124.075 5.71139 123.312 5.72203C122.405 5.72203 121.608 5.95603 120.92 6.42503C120.379 6.79003 119.965 7.29603 119.677 7.94503V7.94403ZM119.677 8.75003V17.251C119.807 17.405 119.964 17.533 120.146 17.635C120.443 17.791 120.779 17.869 121.155 17.869C121.858 17.869 122.413 17.635 122.82 17.166C123.226 16.681 123.515 16.009 123.687 15.149C123.875 14.274 123.969 13.234 123.969 12.03C123.969 10.686 123.883 9.63003 123.711 8.86403C123.539 8.09803 123.304 7.55103 123.007 7.22303C122.71 6.89403 122.351 6.73003 121.928 6.73003C121.366 6.73003 120.85 6.95003 120.381 7.38703C120.028 7.72703 119.793 8.18203 119.677 8.75003Z" fill="#2F2352"/>
<path d="M132.893 5.72191C133.55 5.72191 134.12 5.80791 134.605 5.97991C135.105 6.13591 135.465 6.29291 135.684 6.44891C136.215 6.80891 136.544 6.57391 136.669 5.74491H137.161C137.13 6.18291 137.106 6.72291 137.091 7.36291C137.075 7.98891 137.067 8.82491 137.067 9.87291H136.575C136.494 9.28656 136.345 8.71185 136.129 8.16091C135.93 7.62621 135.599 7.15024 135.168 6.77691C134.761 6.41691 134.23 6.23691 133.573 6.23691C133.12 6.23691 132.737 6.37091 132.424 6.63691C132.111 6.88691 131.955 7.25391 131.955 7.73891C131.955 8.20791 132.096 8.62191 132.377 8.98191C132.659 9.32591 133.018 9.66191 133.456 9.98991C133.909 10.3029 134.378 10.6389 134.863 10.9979C135.379 11.3889 135.848 11.7799 136.27 12.1709C136.674 12.5246 137.015 12.945 137.278 13.4139C137.529 13.8669 137.654 14.4059 137.654 15.0319C137.654 15.7349 137.45 16.3519 137.044 16.8839C136.637 17.3999 136.098 17.7989 135.426 18.0799C134.769 18.3619 134.034 18.5029 133.222 18.5029C132.795 18.5077 132.37 18.4604 131.955 18.3619C131.629 18.2809 131.315 18.1628 131.017 18.0099C130.814 17.9159 130.618 17.8299 130.431 17.7519C130.271 17.6642 130.106 17.586 129.938 17.5179C129.782 17.4709 129.641 17.5249 129.516 17.6819C129.407 17.8379 129.321 18.0569 129.258 18.3379H128.766C128.797 17.8379 128.821 17.2279 128.836 16.5089C128.852 15.7899 128.86 14.8359 128.86 13.6489H129.352C129.446 14.4929 129.618 15.2429 129.868 15.8989C130.118 16.5409 130.454 17.0489 130.876 17.4239C131.314 17.7839 131.861 17.9639 132.518 17.9639C132.784 17.9639 133.042 17.9089 133.292 17.7989C133.542 17.6889 133.745 17.5089 133.902 17.2589C134.074 17.0089 134.16 16.6889 134.16 16.2989C134.16 15.6099 133.933 15.0389 133.479 14.5859C133.042 14.1329 132.479 13.6399 131.791 13.1089C131.291 12.7019 130.814 12.3039 130.361 11.9129C129.941 11.5286 129.577 11.0865 129.282 10.5999C128.996 10.1004 128.85 9.53321 128.86 8.95791C128.86 8.25491 129.047 7.66091 129.422 7.17591C129.804 6.68585 130.316 6.3122 130.9 6.09691C131.534 5.84517 132.21 5.71786 132.893 5.72191ZM162.004 5.97991C161.597 5.80791 161.066 5.72191 160.409 5.72191C159.673 5.71444 158.948 5.89187 158.299 6.23791C157.658 6.56591 157.15 7.12091 156.774 7.90291V5.79291C156.29 5.90191 155.758 5.98791 155.18 6.04991C154.617 6.09691 154.007 6.11991 153.351 6.11991C152.882 6.11991 152.397 6.09691 151.897 6.04991V6.54291C152.475 6.54291 152.866 6.71491 153.069 7.05891C153.288 7.38691 153.397 7.90291 153.397 8.60591V15.9929C153.397 16.6499 153.28 17.0959 153.046 17.3299C152.827 17.5649 152.444 17.6819 151.897 17.6819V18.1739C152.365 18.1529 152.834 18.1372 153.304 18.1269C153.913 18.096 154.523 18.0804 155.133 18.0799C155.68 18.0799 156.212 18.0959 156.727 18.1269C157.259 18.1429 157.65 18.1589 157.9 18.1739V17.6819C157.494 17.6819 157.204 17.5649 157.032 17.3299C156.86 17.0959 156.774 16.6499 156.774 15.9929V9.47391C156.774 8.95791 156.876 8.49691 157.079 8.08991C157.298 7.66791 157.579 7.33991 157.923 7.10591C158.253 6.87572 158.646 6.75282 159.049 6.75391C159.409 6.75391 159.674 6.83991 159.846 7.01191C160.034 7.16791 160.159 7.39491 160.222 7.69191C160.284 7.97291 160.315 8.30891 160.315 8.69991V15.9929C160.315 16.6499 160.229 17.0959 160.057 17.3299C159.901 17.5649 159.612 17.6819 159.19 17.6819V18.1739C159.471 18.1589 159.885 18.1429 160.433 18.1269C161.542 18.0636 162.654 18.0636 163.763 18.1269C164.341 18.1429 164.771 18.1589 165.052 18.1739V17.6819C164.552 17.6819 164.2 17.5649 163.997 17.3299C163.794 17.0959 163.692 16.6499 163.692 15.9929V9.57791L163.691 9.50491L163.687 9.26791C163.723 8.87591 163.828 8.49336 163.997 8.13791C164.216 7.71491 164.497 7.37891 164.841 7.12891C165.185 6.87891 165.561 6.75391 165.967 6.75391C166.373 6.75391 166.671 6.83991 166.858 7.01191C167.061 7.16791 167.194 7.39491 167.257 7.69191C167.335 7.97291 167.374 8.30891 167.374 8.69991V15.9929C167.374 16.6499 167.288 17.0959 167.116 17.3299C166.96 17.5649 166.671 17.6819 166.248 17.6819V18.1739C166.53 18.1589 166.944 18.1429 167.491 18.1269C168.045 18.0954 168.6 18.0798 169.156 18.0799C169.735 18.0799 170.321 18.0959 170.915 18.1269C171.509 18.1429 171.955 18.1589 172.252 18.1739V17.6819C171.705 17.6819 171.314 17.5649 171.079 17.3299C170.86 17.0959 170.751 16.6499 170.751 15.9929V9.68491C170.751 8.90291 170.696 8.27791 170.587 7.80891C170.477 7.32391 170.298 6.93391 170.047 6.63691C169.797 6.35491 169.469 6.13691 169.062 5.97991C168.656 5.80791 168.124 5.72191 167.468 5.72191C166.671 5.72191 165.92 5.88591 165.217 6.21391C164.543 6.53591 163.997 7.14991 163.578 8.05591C163.563 7.97312 163.547 7.89076 163.528 7.80891C163.419 7.32391 163.239 6.93391 162.989 6.63691C162.739 6.35491 162.41 6.13691 162.004 5.97991ZM150.057 15.6179V5.79191C149.572 5.90191 149.041 5.98791 148.462 6.04991C147.9 6.09691 147.29 6.11991 146.633 6.11991C146.164 6.11991 145.68 6.09691 145.179 6.04991V6.54291C145.758 6.54291 146.149 6.71491 146.352 7.05891C146.571 7.38691 146.68 7.90291 146.68 8.60591V14.7499C146.68 15.2659 146.571 15.7349 146.352 16.1569C146.166 16.5433 145.883 16.8748 145.531 17.1189C145.203 17.3536 144.808 17.477 144.405 17.4709C144.015 17.4709 143.718 17.3919 143.514 17.2359C143.303 17.0515 143.155 16.8056 143.092 16.5329C143.025 16.193 142.994 15.8472 142.998 15.5009V5.79191C142.514 5.90191 141.982 5.98791 141.404 6.04991C140.841 6.09691 140.231 6.11991 139.575 6.11991C139.106 6.11991 138.621 6.09691 138.121 6.04991V6.54291C138.699 6.54291 139.09 6.71491 139.293 7.05891C139.512 7.38691 139.621 7.90291 139.621 8.60591V14.5389C139.621 15.3049 139.676 15.9309 139.786 16.4149C139.895 16.8999 140.083 17.2909 140.348 17.5879C140.583 17.8539 140.903 18.0729 141.31 18.2449C141.716 18.4159 142.248 18.5029 142.905 18.5029C143.718 18.5029 144.452 18.3379 145.109 18.0099C145.781 17.6659 146.305 17.1029 146.68 16.3219V18.4319C147.203 18.303 147.737 18.2167 148.275 18.1739C148.838 18.1269 149.447 18.1039 150.104 18.1039C150.589 18.1039 151.073 18.1269 151.558 18.1739V17.6819C150.995 17.6819 150.604 17.5179 150.385 17.1889C150.166 16.8449 150.057 16.3219 150.057 15.6189V15.6179Z" fill="#2F2352"/>
<path fill-rule="evenodd" clip-rule="evenodd" d="M104.696 6.35494C103.836 5.93294 102.835 5.72194 101.694 5.72194C100.584 5.72194 99.591 5.93294 98.716 6.35494C97.856 6.77694 97.176 7.45694 96.676 8.39494C96.191 9.33294 95.948 10.5759 95.948 12.1239C95.948 13.6719 96.191 14.9139 96.675 15.8529C97.175 16.7749 97.855 17.4469 98.715 17.8689C99.591 18.2909 100.584 18.5029 101.694 18.5029C102.835 18.5029 103.836 18.2909 104.696 17.8689C105.555 17.4469 106.228 16.7749 106.712 15.8529C107.197 14.9149 107.439 13.6719 107.439 12.1239C107.439 10.5759 107.197 9.33394 106.712 8.39494C106.228 7.45694 105.555 6.77694 104.696 6.35494ZM100.123 7.59794C100.545 6.65994 101.069 6.19094 101.694 6.19094C102.335 6.19094 102.859 6.65994 103.265 7.59794C103.687 8.51994 103.898 10.0289 103.898 12.1239C103.898 14.2189 103.687 15.7279 103.265 16.6499C102.859 17.5719 102.335 18.0339 101.694 18.0339C101.069 18.0339 100.545 17.5719 100.123 16.6499C99.701 15.7279 99.49 14.2189 99.49 12.1239C99.49 10.0289 99.7 8.51994 100.123 7.59794ZM88.301 22.5829C87.331 22.5829 86.464 22.4969 85.698 22.3249C84.948 22.1689 84.354 21.9189 83.916 21.5749C83.494 21.2459 83.283 20.8399 83.283 20.3549C83.283 19.8699 83.501 19.4329 83.939 19.0419C84.377 18.6669 85.026 18.3699 85.886 18.1509L86.096 18.5259C85.8275 18.7276 85.6041 18.983 85.44 19.2759C85.315 19.5579 85.252 19.8469 85.252 20.1439C85.252 20.8009 85.549 21.3009 86.144 21.6439C86.754 22.0039 87.574 22.1839 88.606 22.1839C89.309 22.1839 89.935 22.0899 90.482 21.9029C91.045 21.7149 91.482 21.4329 91.795 21.0589C92.124 20.6829 92.288 20.2219 92.288 19.6749C92.288 19.2059 92.116 18.8069 91.772 18.4789C91.428 18.1659 90.74 18.0099 89.708 18.0099H88.254C87.614 18.0099 87.05 17.9399 86.566 17.7989C86.096 17.6589 85.729 17.4389 85.463 17.1419C85.198 16.8299 85.065 16.4389 85.065 15.9699C85.065 15.3129 85.323 14.7349 85.839 14.2339C86.243 13.8419 86.801 13.4689 87.513 13.1159C87.0449 13.0577 86.5851 12.9453 86.143 12.7809C85.44 12.5149 84.885 12.1079 84.479 11.5609C84.072 11.0139 83.869 10.3109 83.869 9.45094C83.869 8.59094 84.072 7.88694 84.479 7.33994C84.885 6.77694 85.44 6.36994 86.144 6.11994C86.847 5.85494 87.644 5.72194 88.535 5.72194C89.427 5.72194 90.224 5.85494 90.927 6.12094C91.391 6.28494 91.789 6.51794 92.124 6.81794C92.323 6.53094 92.565 6.27494 92.85 6.04994C93.382 5.64394 93.953 5.43994 94.562 5.43994C95.062 5.43994 95.438 5.58094 95.688 5.86294C95.954 6.12794 96.087 6.47994 96.087 6.91794C96.087 7.38694 95.961 7.73794 95.711 7.97294C95.461 8.19294 95.18 8.30194 94.867 8.30194C94.5918 8.2983 94.3265 8.19854 94.117 8.01994C93.897 7.83194 93.773 7.55094 93.742 7.17594C93.715 6.83994 93.809 6.42394 94.024 5.92594C93.568 6.11994 93.216 6.34094 92.968 6.58994C92.781 6.7702 92.6177 6.9735 92.482 7.19494C92.52 7.24194 92.557 7.29094 92.592 7.33994C92.999 7.88694 93.202 8.58994 93.202 9.44994C93.202 10.3099 92.999 11.0139 92.592 11.5609C92.186 12.1079 91.631 12.5149 90.927 12.7809C90.224 13.0459 89.427 13.1789 88.535 13.1789C88.4016 13.1791 88.2682 13.1761 88.135 13.1699C87.924 13.3129 87.721 13.4649 87.527 13.6249C87.4065 13.7192 87.3098 13.8404 87.2447 13.9788C87.1796 14.1173 87.1478 14.269 87.152 14.4219C87.152 14.9219 87.465 15.1719 88.09 15.1719H90.646C91.506 15.1719 92.272 15.2739 92.944 15.4769C93.632 15.6809 94.171 16.0169 94.562 16.4859C94.969 16.9389 95.172 17.5329 95.172 18.2679C95.172 19.0339 94.922 19.7449 94.422 20.4019C93.937 21.0589 93.187 21.5819 92.17 21.9729C91.154 22.3799 89.864 22.5829 88.301 22.5829ZM88.535 12.7569C88.958 12.7569 89.285 12.5229 89.52 12.0539C89.755 11.5689 89.872 10.7009 89.872 9.45094C89.872 8.19994 89.755 7.33994 89.52 6.87094C89.286 6.38594 88.958 6.14394 88.536 6.14394C88.129 6.14394 87.801 6.38594 87.551 6.87094C87.316 7.33994 87.199 8.19994 87.199 9.45094C87.199 10.7009 87.316 11.5689 87.551 12.0539C87.801 12.5229 88.129 12.7569 88.535 12.7569ZM80.247 6.35494C79.387 5.93294 78.387 5.72194 77.246 5.72194C76.136 5.72194 75.143 5.93294 74.268 6.35494C73.408 6.77694 72.728 7.45694 72.228 8.39494C71.743 9.33294 71.5 10.5759 71.5 12.1239C71.5 13.6719 71.743 14.9139 72.227 15.8529C72.727 16.7749 73.407 17.4469 74.267 17.8689C75.143 18.2909 76.136 18.5029 77.246 18.5029C78.387 18.5029 79.388 18.2909 80.247 17.8689C81.107 17.4469 81.779 16.7749 82.264 15.8529C82.749 14.9149 82.991 13.6719 82.991 12.1239C82.991 10.5759 82.749 9.33394 82.264 8.39494C81.78 7.45694 81.107 6.77694 80.247 6.35494ZM75.674 7.59794C76.097 6.65994 76.62 6.19094 77.246 6.19094C77.886 6.19094 78.41 6.65994 78.816 7.59794C79.239 8.51994 79.45 10.0289 79.45 12.1239C79.45 14.2189 79.239 15.7279 78.817 16.6499C78.41 17.5719 77.887 18.0339 77.246 18.0339C76.62 18.0339 76.096 17.5719 75.674 16.6499C75.252 15.7279 75.041 14.2189 75.041 12.1239C75.041 10.0289 75.252 8.51994 75.674 7.59794Z" fill="#2F2352"/>
<path d="M65.1848 1.57104V2.04104C64.6538 2.05604 64.2468 2.11804 63.9658 2.22804C63.8372 2.27159 63.721 2.3455 63.627 2.4435C63.533 2.5415 63.464 2.66072 63.4258 2.79104C63.3328 3.05604 63.2858 3.47904 63.2858 4.05704V15.97C63.2858 16.454 63.3168 16.814 63.3798 17.049C63.4578 17.283 63.5988 17.439 63.8018 17.518C64.0208 17.596 64.3418 17.635 64.7628 17.635H65.9128C66.4428 17.635 66.9438 17.51 67.4128 17.26C67.8828 17.01 68.3038 16.658 68.6788 16.204C69.0744 15.6998 69.391 15.1384 69.6178 14.539C69.8678 13.899 70.0548 13.187 70.1798 12.405H70.7198C70.6728 12.937 70.6498 13.625 70.6498 14.469C70.6498 14.829 70.6568 15.352 70.6728 16.04C70.6888 16.728 70.7348 17.44 70.8128 18.174C69.9145 18.1409 69.0157 18.1253 68.1168 18.127C67.1168 18.112 66.2248 18.104 65.4428 18.104H63.9428C63.3328 18.104 62.6758 18.112 61.9728 18.127C61.2688 18.127 60.5578 18.135 59.8388 18.151C59.1188 18.151 58.4388 18.159 57.7988 18.174V17.705C58.2988 17.674 58.6738 17.611 58.9238 17.518C59.1738 17.424 59.3378 17.236 59.4168 16.955C59.5098 16.673 59.5568 16.251 59.5568 15.688V4.05704C59.5568 3.47804 59.5098 3.05704 59.4168 2.79104C59.386 2.66096 59.3224 2.54092 59.2321 2.44237C59.1418 2.34382 59.0277 2.27003 58.9008 2.22804C58.6508 2.11804 58.2828 2.05604 57.7988 2.04004V1.57104C59.0333 1.61678 60.2685 1.64012 61.5038 1.64104C62.1918 1.64104 62.8638 1.63404 63.5198 1.61804C64.1928 1.60204 64.7478 1.58704 65.1848 1.57104Z" fill="#2F2352"/>
<path fill-rule="evenodd" clip-rule="evenodd" d="M169.871 37.553C169.838 37.385 169.86 37.166 169.939 36.896L173.242 24.929C172.714 25.1458 172.166 25.3148 171.607 25.434C171.034 25.547 170.377 25.608 169.635 25.62L169.517 25.974C170.068 25.974 170.411 26.064 170.546 26.244C170.68 26.424 170.697 26.704 170.596 27.086L169.814 30.035C169.765 29.8927 169.681 29.7653 169.568 29.665C169.377 29.485 169.113 29.395 168.776 29.395C168.102 29.395 167.478 29.547 166.905 29.85C166.329 30.1649 165.81 30.5754 165.371 31.064C164.91 31.5591 164.519 32.1149 164.208 32.716C163.902 33.3009 163.659 33.9167 163.483 34.553C163.324 35.101 163.239 35.6681 163.23 36.239C163.23 36.778 163.315 37.222 163.483 37.57C163.652 37.907 163.882 38.16 164.174 38.328C164.466 38.486 164.792 38.564 165.152 38.564C165.702 38.564 166.197 38.402 166.635 38.076C167.073 37.739 167.483 37.222 167.866 36.525C168.026 36.241 168.187 35.922 168.347 35.568L168.236 35.986C168.135 36.3152 168.067 36.654 168.034 36.997C168.012 37.289 168.034 37.537 168.102 37.739C168.236 38.289 168.652 38.565 169.349 38.565C169.607 38.565 169.871 38.514 170.141 38.413C170.411 38.312 170.663 38.138 170.899 37.89C171.147 37.643 171.343 37.29 171.489 36.828L171.894 35.598H171.574L171.304 36.356C171.102 36.93 170.911 37.317 170.731 37.519C170.562 37.711 170.388 37.806 170.208 37.806C170.017 37.806 169.905 37.722 169.871 37.553ZM168.972 33.213C168.845 33.624 168.707 34.015 168.557 34.384C168.276 35.104 167.978 35.722 167.663 36.239C167.36 36.744 167.062 37.137 166.77 37.419C166.478 37.688 166.219 37.823 165.995 37.823C165.781 37.823 165.624 37.722 165.523 37.52C165.433 37.306 165.388 36.986 165.388 36.559C165.388 35.952 165.455 35.334 165.59 34.705C165.725 34.065 165.91 33.452 166.146 32.868C166.364 32.3199 166.635 31.7947 166.955 31.3C167.259 30.828 167.579 30.457 167.916 30.187C168.264 29.917 168.607 29.783 168.944 29.783C169.169 29.783 169.349 29.862 169.484 30.019C169.578 30.121 169.65 30.269 169.7 30.465L168.972 33.213Z" fill="#2F2352"/>
<path d="M158.655 38.328H156.582L158.604 31.064C158.706 30.727 158.739 30.491 158.706 30.356C158.672 30.221 158.571 30.154 158.402 30.154C158.189 30.154 157.992 30.261 157.812 30.474C157.632 30.687 157.447 31.064 157.256 31.604L156.969 32.395H156.649L157.087 31.131C157.245 30.681 157.441 30.334 157.677 30.086C157.913 29.828 158.172 29.648 158.453 29.547C158.734 29.446 159.02 29.395 159.312 29.395C159.672 29.395 159.936 29.468 160.104 29.615C160.284 29.761 160.397 29.952 160.442 30.188C160.499 30.4424 160.51 30.7048 160.475 30.963C160.453 31.233 160.408 31.497 160.34 31.755L160.069 32.812L160.138 32.632C160.453 31.834 160.756 31.199 161.048 30.727C161.352 30.244 161.672 29.901 162.009 29.699C162.339 29.4983 162.719 29.3931 163.105 29.395C163.509 29.395 163.818 29.513 164.032 29.749C164.257 29.985 164.369 30.277 164.369 30.626C164.369 30.906 164.301 31.171 164.167 31.418C164.036 31.6498 163.851 31.8464 163.627 31.991C163.414 32.126 163.167 32.193 162.886 32.193C162.605 32.193 162.38 32.12 162.211 31.974C162.054 31.828 161.975 31.614 161.975 31.334C161.975 31.086 162.032 30.862 162.144 30.659C162.252 30.4614 162.402 30.2892 162.582 30.154C162.762 30.008 162.959 29.907 163.172 29.85C163.148 29.8269 163.12 29.8097 163.088 29.8C163.05 29.7881 163.01 29.7824 162.97 29.783C162.723 29.783 162.47 29.873 162.211 30.053C161.953 30.221 161.683 30.497 161.402 30.879C161.121 31.261 160.835 31.766 160.543 32.395C160.213 33.1388 159.921 33.8984 159.666 34.671C159.539 35.045 159.411 35.447 159.283 35.878L158.655 38.328Z" fill="#2F2352"/>
<path fill-rule="evenodd" clip-rule="evenodd" d="M152.357 35.724L152.286 35.986C152.18 36.3666 152.106 36.7557 152.067 37.149C152.033 37.509 152.089 37.812 152.235 38.059C152.46 38.396 152.842 38.565 153.381 38.565C153.64 38.565 153.898 38.514 154.157 38.413C154.426 38.312 154.679 38.138 154.915 37.89C155.151 37.632 155.348 37.272 155.505 36.812L155.927 35.582H155.606L155.353 36.34C155.151 36.924 154.955 37.312 154.764 37.503C154.573 37.693 154.387 37.789 154.207 37.789C154.061 37.789 153.966 37.744 153.921 37.654C153.886 37.5395 153.874 37.419 153.887 37.3C153.909 37.1571 153.943 37.0162 153.988 36.879L156.163 29.395C155.825 29.4759 155.481 29.5323 155.134 29.564C154.786 29.598 154.41 29.62 154.005 29.631L153.761 30.533C153.751 30.3039 153.684 30.081 153.567 29.884C153.479 29.7303 153.351 29.6036 153.197 29.5174C153.042 29.4313 152.867 29.3889 152.69 29.395C152.196 29.395 151.702 29.547 151.207 29.85C150.681 30.1805 150.21 30.59 149.808 31.064C149.354 31.5808 148.959 32.1459 148.628 32.749C148.297 33.3537 148.031 33.9924 147.836 34.654C147.652 35.2492 147.556 35.868 147.55 36.491C147.55 37.121 147.696 37.626 147.988 38.008C148.28 38.379 148.729 38.564 149.336 38.564C149.763 38.564 150.173 38.441 150.567 38.194C150.971 37.946 151.353 37.536 151.713 36.964C151.936 36.619 152.15 36.206 152.357 35.724ZM150.904 37.435C150.645 37.671 150.415 37.789 150.213 37.789C150.044 37.789 149.915 37.705 149.825 37.536C149.746 37.356 149.707 37.059 149.707 36.643C149.707 36.047 149.774 35.435 149.909 34.806C150.044 34.176 150.224 33.57 150.449 32.986C150.685 32.401 150.943 31.879 151.224 31.418C151.505 30.958 151.786 30.592 152.067 30.322C152.359 30.052 152.634 29.918 152.893 29.918C153.162 29.918 153.353 30.053 153.466 30.322C153.578 30.566 153.607 30.893 153.553 31.302L153.055 33.144L153.112 32.851C152.932 33.57 152.718 34.233 152.471 34.84C152.256 35.3826 151.997 35.9067 151.696 36.407C151.426 36.845 151.162 37.188 150.904 37.435ZM145.284 36.896C145.205 37.166 145.183 37.385 145.217 37.553C145.25 37.722 145.363 37.806 145.554 37.806C145.734 37.806 145.908 37.711 146.076 37.52C146.256 37.317 146.447 36.93 146.649 36.356L146.919 35.598H147.239L146.835 36.828C146.689 37.289 146.492 37.643 146.245 37.89C146.035 38.1196 145.776 38.2985 145.486 38.413C145.234 38.5111 144.965 38.5626 144.694 38.565C143.998 38.565 143.582 38.289 143.447 37.739C143.376 37.4985 143.353 37.2463 143.38 36.997C143.402 36.705 143.469 36.367 143.582 35.986L143.693 35.568C143.532 35.922 143.371 36.241 143.211 36.525C142.829 37.222 142.419 37.739 141.981 38.075C141.554 38.3975 141.032 38.5698 140.497 38.565C140.138 38.565 139.812 38.485 139.52 38.329C139.219 38.1509 138.978 37.8864 138.829 37.57C138.66 37.222 138.576 36.778 138.576 36.239C138.576 35.722 138.66 35.159 138.829 34.553C138.997 33.935 139.239 33.323 139.553 32.716C139.864 32.1151 140.255 31.5593 140.716 31.064C141.177 30.558 141.688 30.154 142.25 29.85C142.827 29.5458 143.469 29.3895 144.121 29.395C144.458 29.395 144.722 29.485 144.913 29.665C145.023 29.762 145.106 29.885 145.16 30.035L145.941 27.086C146.043 26.704 146.026 26.423 145.891 26.243C145.756 26.063 145.413 25.973 144.863 25.973L144.981 25.62C145.643 25.6162 146.303 25.5539 146.953 25.434C147.512 25.3148 148.059 25.1458 148.588 24.929L145.284 36.896ZM143.902 34.384C144.052 34.014 144.191 33.624 144.317 33.213L145.046 30.465C145.011 30.3009 144.937 30.1478 144.829 30.019C144.763 29.9415 144.68 29.88 144.587 29.8391C144.493 29.7983 144.392 29.7791 144.29 29.783C143.953 29.783 143.61 29.918 143.262 30.187C142.924 30.457 142.604 30.828 142.301 31.3C141.98 31.7941 141.709 32.319 141.492 32.867C141.253 33.4619 141.067 34.077 140.936 34.705C140.803 35.314 140.735 35.9355 140.733 36.559C140.733 36.986 140.778 37.306 140.868 37.519C140.969 37.722 141.127 37.823 141.34 37.823C141.565 37.823 141.823 37.688 142.115 37.418C142.408 37.138 142.705 36.744 143.009 36.238C143.359 35.6467 143.658 35.0264 143.902 34.384Z" fill="#2F2352"/>
<path d="M129.295 38.328H131.368L131.563 37.566L131.553 37.621C131.767 36.834 132.008 36.076 132.278 35.345C132.54 34.6474 132.832 33.9614 133.154 33.289C133.458 32.659 133.761 32.109 134.065 31.637C134.368 31.165 134.66 30.8 134.941 30.541C135.222 30.271 135.48 30.137 135.716 30.137C135.907 30.137 136.025 30.204 136.07 30.339C136.117 30.4922 136.122 30.6549 136.087 30.811C136.053 30.9937 136.008 31.174 135.952 31.351L134.419 35.986C134.261 36.458 134.171 36.862 134.149 37.199C134.126 37.536 134.188 37.812 134.334 38.025C134.447 38.194 134.604 38.323 134.806 38.413C135.02 38.513 135.273 38.565 135.565 38.565C135.834 38.565 136.104 38.514 136.374 38.413C136.655 38.323 136.913 38.154 137.149 37.907C137.396 37.66 137.599 37.3 137.756 36.828L138.177 35.598H137.857L137.587 36.356C137.374 36.941 137.172 37.328 136.981 37.519C136.801 37.711 136.627 37.806 136.458 37.806C136.278 37.806 136.166 37.733 136.121 37.586C136.076 37.43 136.104 37.199 136.205 36.896L137.857 31.94C138.003 31.502 138.076 31.092 138.076 30.71C138.087 30.317 137.981 30.002 137.756 29.766C137.542 29.519 137.16 29.396 136.61 29.396C136.194 29.396 135.795 29.486 135.413 29.665C135.031 29.845 134.66 30.159 134.301 30.609C133.941 31.047 133.57 31.643 133.188 32.395C132.934 32.9023 132.702 33.4197 132.491 33.946L133.053 31.755C133.121 31.485 133.171 31.215 133.205 30.946C133.239 30.666 133.227 30.412 133.171 30.187C133.117 29.9547 132.979 29.7505 132.784 29.614C132.593 29.468 132.312 29.395 131.941 29.395C131.491 29.395 131.081 29.519 130.71 29.766C130.34 30.013 130.036 30.468 129.8 31.131L129.362 32.395H129.682L129.969 31.603C130.171 31.053 130.356 30.676 130.525 30.474C130.705 30.261 130.901 30.154 131.115 30.154C131.272 30.154 131.368 30.199 131.402 30.289C131.446 30.379 131.458 30.491 131.435 30.626C131.41 30.7738 131.376 30.9201 131.334 31.064L129.295 38.328Z" fill="#2F2352"/>
<path fill-rule="evenodd" clip-rule="evenodd" d="M124.999 35.986L125.07 35.724C124.89 36.1544 124.674 36.5692 124.426 36.964C124.066 37.536 123.684 37.947 123.279 38.194C122.886 38.441 122.476 38.564 122.049 38.564C121.442 38.564 120.993 38.379 120.701 38.008C120.408 37.626 120.262 37.121 120.262 36.491C120.262 35.907 120.358 35.295 120.549 34.654C120.744 33.9925 121.009 33.3538 121.341 32.749C121.671 32.1457 122.067 31.5806 122.521 31.064C122.922 30.5901 123.394 30.1806 123.92 29.85C124.414 29.547 124.909 29.395 125.403 29.395C125.785 29.395 126.077 29.558 126.28 29.885C126.388 30.052 126.453 30.268 126.474 30.533L126.718 29.631C127.122 29.62 127.499 29.598 127.847 29.564C128.207 29.53 128.549 29.474 128.875 29.395L126.701 36.88C126.655 37.0172 126.621 37.158 126.6 37.301C126.587 37.4201 126.598 37.5405 126.634 37.655C126.679 37.745 126.774 37.79 126.92 37.79C127.1 37.79 127.285 37.695 127.476 37.504C127.667 37.313 127.864 36.924 128.066 36.341L128.319 35.582H128.639L128.218 36.812C128.061 37.273 127.864 37.632 127.628 37.892C127.418 38.1211 127.159 38.2996 126.87 38.414C126.623 38.513 126.36 38.5645 126.094 38.566C125.555 38.566 125.173 38.397 124.948 38.06C124.802 37.813 124.746 37.51 124.78 37.15C124.819 36.7568 124.892 36.3666 124.999 35.986ZM122.925 37.789C123.128 37.789 123.358 37.671 123.617 37.435C123.875 37.188 124.139 36.845 124.409 36.407C124.678 35.969 124.937 35.447 125.184 34.84C125.431 34.233 125.645 33.57 125.825 32.85L125.768 33.144L126.266 31.303C126.319 30.893 126.29 30.566 126.179 30.323C126.066 30.053 125.875 29.918 125.605 29.918C125.347 29.918 125.072 30.053 124.78 30.322C124.499 30.592 124.218 30.957 123.937 31.418C123.656 31.878 123.397 32.401 123.161 32.985C122.934 33.5769 122.754 34.1853 122.622 34.805C122.49 35.4088 122.422 36.0249 122.42 36.643C122.42 37.059 122.459 37.357 122.538 37.536C122.628 37.705 122.757 37.789 122.925 37.789Z" fill="#2F2352"/>
<path d="M121.43 29.9679L121.481 29.6309H119.473L120.267 26.8669C119.934 26.9488 119.596 27.0052 119.256 27.0359C118.908 27.0689 118.531 27.0919 118.127 27.1029L117.402 29.6309H115.868L115.784 29.9679H117.306L115.581 35.9859C115.435 36.4799 115.385 36.9239 115.43 37.3169C115.486 37.6989 115.643 38.0029 115.902 38.2269C116.171 38.4519 116.559 38.5649 117.065 38.5649C117.638 38.5649 118.132 38.4129 118.548 38.1089C118.964 37.8059 119.29 37.3059 119.526 36.6089L119.863 35.5979H119.542L119.29 36.2889C119.087 36.8509 118.863 37.2439 118.615 37.4689C118.379 37.6939 118.143 37.8059 117.907 37.8059C117.814 37.809 117.722 37.7908 117.637 37.7526C117.552 37.7145 117.478 37.6575 117.419 37.5859C117.306 37.4409 117.295 37.2109 117.385 36.8959L119.376 29.9679H121.43ZM115.848 26.2769C115.736 26.5689 115.584 26.9969 115.393 27.5579C115.213 28.1079 115.034 28.8279 114.854 29.7149H114.517C114.55 29.5579 114.573 29.3949 114.584 29.2269C114.605 29.0762 114.616 28.9242 114.618 28.7719C114.618 28.3329 114.528 27.9519 114.348 27.6259C114.175 27.2841 113.897 27.0062 113.556 26.8329C113.208 26.6309 112.758 26.5299 112.208 26.5299C111.612 26.5299 111.106 26.6869 110.691 27.0019C110.275 27.3049 110.067 27.7939 110.067 28.4679C110.067 28.8839 110.162 29.2779 110.353 29.6479C110.556 30.0079 110.809 30.3619 111.112 30.7099C111.427 31.0469 111.758 31.3899 112.106 31.7379C112.455 32.0749 112.781 32.4239 113.084 32.7829C113.387 33.1429 113.635 33.5249 113.826 33.9289C114.028 34.3229 114.129 34.7549 114.129 35.2269C114.129 35.8229 113.983 36.3339 113.691 36.7609C113.406 37.1804 113.031 37.5315 112.595 37.7889C112.137 38.0508 111.643 38.2438 111.129 38.3619C110.634 38.4941 110.124 38.5623 109.612 38.5649C109.106 38.5649 108.685 38.5249 108.348 38.4469C108.059 38.3927 107.781 38.296 107.522 38.1599C107.301 38.039 107.082 37.9156 106.864 37.7899C106.764 37.7067 106.65 37.6435 106.527 37.6039C106.448 37.5645 106.362 37.5413 106.275 37.5359C106.128 37.5359 106.005 37.6089 105.904 37.7559C105.771 37.9755 105.658 38.2064 105.567 38.4459H105.229C105.507 37.7605 105.738 37.0569 105.921 36.3399C106.055 35.8229 106.207 35.1769 106.376 34.4009H106.713C106.665 34.6242 106.626 34.849 106.595 35.0749C106.561 35.2999 106.55 35.5249 106.561 35.7499C106.595 36.5359 106.836 37.1429 107.286 37.5699C107.747 37.9969 108.421 38.2099 109.308 38.2099C110.061 38.2099 110.629 38.0529 111.011 37.7389C111.393 37.4129 111.584 36.9409 111.584 36.3229C111.584 35.8509 111.494 35.4229 111.314 35.0419C111.144 34.6456 110.917 34.2764 110.64 33.9459C110.354 33.604 110.056 33.2725 109.747 32.9519C109.436 32.6314 109.138 32.2995 108.853 31.9569C108.577 31.6166 108.344 31.243 108.162 30.8449C107.978 30.4193 107.886 29.9596 107.893 29.4959C107.893 28.9349 108.011 28.4459 108.247 28.0299C108.484 27.6242 108.806 27.2737 109.19 27.0019C109.583 26.7209 110.022 26.5098 110.488 26.3779C110.94 26.235 111.412 26.1612 111.887 26.1589C112.494 26.1589 112.994 26.2319 113.387 26.3789C113.781 26.5239 114.118 26.6989 114.399 26.9009L114.719 27.1029C114.82 27.1479 114.899 27.1699 114.955 27.1699C115.112 27.1699 115.298 26.8729 115.511 26.2769H115.848Z" fill="#2F2352"/>
<path fill-rule="evenodd" clip-rule="evenodd" d="M99.5785 37.553C99.5445 37.385 99.5675 37.166 99.6465 36.896L102.95 24.929C102.421 25.1458 101.874 25.3148 101.315 25.434C100.742 25.547 100.085 25.608 99.3425 25.62L99.2245 25.974C99.7745 25.974 100.119 26.064 100.253 26.244C100.388 26.424 100.405 26.704 100.304 27.086L99.5215 30.035C99.4724 29.8927 99.3877 29.7653 99.2755 29.665C99.0845 29.485 98.8205 29.395 98.4835 29.395C97.8085 29.395 97.1855 29.547 96.6125 29.85C96.0361 30.1648 95.5174 30.5754 95.0785 31.064C94.6174 31.5591 94.2261 32.1149 93.9155 32.716C93.6094 33.3009 93.3664 33.9166 93.1905 34.553C93.0305 35.101 92.9454 35.6681 92.9375 36.239C92.9375 36.778 93.0225 37.222 93.1905 37.57C93.3595 37.907 93.5895 38.16 93.8815 38.328C94.1735 38.486 94.4995 38.564 94.8595 38.564C95.4095 38.564 95.9045 38.402 96.3425 38.076C96.7805 37.739 97.1905 37.222 97.5725 36.525C97.7325 36.241 97.8935 35.922 98.0545 35.568L97.9445 35.986C97.8422 36.3151 97.7742 36.6539 97.7415 36.997C97.7146 37.2463 97.7374 37.4985 97.8085 37.739C97.9435 38.289 98.3585 38.565 99.0565 38.565C99.3145 38.565 99.5785 38.514 99.8485 38.413C100.119 38.312 100.371 38.138 100.607 37.89C100.855 37.643 101.051 37.29 101.197 36.828L101.602 35.598H101.282L101.012 36.356C100.81 36.93 100.619 37.317 100.439 37.519C100.27 37.711 100.096 37.806 99.9155 37.806C99.7255 37.806 99.6125 37.722 99.5785 37.553ZM98.6785 33.213C98.5525 33.624 98.4145 34.015 98.2635 34.384C97.9835 35.104 97.6855 35.722 97.3705 36.239C97.0675 36.744 96.7695 37.137 96.4775 37.419C96.1855 37.688 95.9275 37.823 95.7015 37.823C95.4885 37.823 95.3315 37.722 95.2305 37.52C95.1405 37.306 95.0955 36.986 95.0955 36.559C95.0955 35.952 95.1625 35.334 95.2975 34.705C95.4325 34.065 95.6175 33.452 95.8535 32.868C96.0709 32.3198 96.3423 31.7945 96.6635 31.3C96.9665 30.828 97.2865 30.457 97.6235 30.187C97.9715 29.917 98.3145 29.783 98.6515 29.783C98.8765 29.783 99.0565 29.862 99.1915 30.019C99.2855 30.121 99.3575 30.269 99.4075 30.465L98.6785 33.213Z" fill="#2F2352"/>
<path d="M85.7292 38.328H83.6562L85.6963 31.064C85.7413 30.907 85.7742 30.761 85.7962 30.626C85.8213 30.513 85.8098 30.395 85.7633 30.289C85.7293 30.199 85.6332 30.154 85.4762 30.154C85.2632 30.154 85.0663 30.261 84.8863 30.474C84.7183 30.676 84.5323 31.053 84.3303 31.604L84.0443 32.395H83.7243L84.1623 31.131C84.3983 30.468 84.7023 30.013 85.0723 29.766C85.4423 29.519 85.8523 29.396 86.3023 29.396C86.6733 29.396 86.9542 29.468 87.1452 29.614C87.3411 29.7503 87.4794 29.9545 87.5332 30.187C87.5892 30.412 87.6003 30.665 87.5673 30.946C87.5329 31.2185 87.4821 31.4886 87.4153 31.755L86.8532 33.947C87.0912 33.358 87.3233 32.842 87.5503 32.395C87.9323 31.643 88.3023 31.047 88.6623 30.609C89.0223 30.159 89.3923 29.845 89.7743 29.665C90.1573 29.485 90.5553 29.395 90.9713 29.395C91.5213 29.395 91.9042 29.519 92.1172 29.766C92.3422 30.002 92.4492 30.316 92.4372 30.71C92.4372 31.092 92.3653 31.502 92.2183 31.94L90.5673 36.896C90.4653 37.199 90.4373 37.43 90.4823 37.586C90.5273 37.733 90.6403 37.806 90.8203 37.806C90.9883 37.806 91.1623 37.711 91.3423 37.52C91.5333 37.328 91.7352 36.94 91.9492 36.356L92.2193 35.598H92.5393L92.1172 36.828C91.9602 37.3 91.7573 37.66 91.5113 37.908C91.2995 38.1393 91.0325 38.313 90.7353 38.413C90.477 38.5121 90.2029 38.5636 89.9263 38.565C89.6343 38.565 89.3813 38.514 89.1683 38.413C88.9653 38.323 88.8083 38.193 88.6963 38.025C88.5503 37.812 88.4883 37.536 88.5103 37.199C88.5333 36.862 88.6233 36.458 88.7803 35.986L90.3143 31.351C90.3703 31.171 90.4152 30.991 90.4492 30.811C90.4846 30.6549 90.4788 30.4922 90.4323 30.339C90.3873 30.204 90.2693 30.137 90.0783 30.137C89.8423 30.137 89.5833 30.272 89.3033 30.541C89.0223 30.8 88.7293 31.165 88.4263 31.637C88.0899 32.1688 87.786 32.7205 87.5163 33.289C87.2133 33.919 86.9203 34.603 86.6393 35.345C86.3693 36.075 86.1293 36.834 85.9153 37.621L85.9253 37.566L85.7292 38.328Z" fill="#2F2352"/>
<path fill-rule="evenodd" clip-rule="evenodd" d="M79.43 35.7241L79.36 35.9861C79.2539 36.3668 79.1803 36.7559 79.14 37.1491C79.106 37.5091 79.162 37.8121 79.308 38.0591C79.533 38.3961 79.915 38.5651 80.455 38.5651C80.7432 38.563 81.028 38.5021 81.2918 38.386C81.5555 38.2699 81.7928 38.1012 81.989 37.8901C82.225 37.6321 82.421 37.2721 82.579 36.8121L82.999 35.5821H82.679L82.427 36.3401C82.224 36.9241 82.027 37.3121 81.837 37.5031C81.646 37.6931 81.46 37.7891 81.281 37.7891C81.134 37.7891 81.039 37.7441 80.994 37.6541C80.9589 37.5396 80.9473 37.4191 80.96 37.3001C80.983 37.1541 81.016 37.0141 81.062 36.8791L83.236 29.3951C82.8979 29.4759 82.5543 29.5324 82.208 29.5641C81.859 29.5981 81.483 29.6201 81.078 29.6311L80.834 30.5331C80.8236 30.3041 80.757 30.0812 80.64 29.8841C80.5523 29.7306 80.4244 29.604 80.27 29.5178C80.1157 29.4316 79.9407 29.3892 79.764 29.3951C79.269 29.3951 78.774 29.5471 78.28 29.8501C77.786 30.1541 77.32 30.5581 76.881 31.0641C76.427 31.5807 76.0313 32.1458 75.701 32.7491C75.3696 33.3539 75.104 33.9925 74.909 34.6541C74.7252 35.2493 74.6288 35.8681 74.623 36.4911C74.623 37.1211 74.769 37.6261 75.061 38.0081C75.353 38.3791 75.803 38.5641 76.409 38.5641C76.836 38.5641 77.247 38.4411 77.639 38.1941C78.044 37.9461 78.427 37.5361 78.786 36.9641C79.009 36.6191 79.223 36.2061 79.43 35.7241ZM77.977 37.4351C77.719 37.6711 77.488 37.7891 77.286 37.7891C77.117 37.7891 76.988 37.7051 76.898 37.5361C76.82 37.3561 76.78 37.0591 76.78 36.6431C76.78 36.0471 76.848 35.4351 76.983 34.8061C77.117 34.1761 77.297 33.5701 77.522 32.9861C77.758 32.4011 78.016 31.8791 78.297 31.4181C78.578 30.9581 78.859 30.5921 79.14 30.3221C79.432 30.0521 79.707 29.9181 79.966 29.9181C80.236 29.9181 80.426 30.0531 80.539 30.3221C80.651 30.5661 80.679 30.8931 80.626 31.3021L80.128 33.1441L80.185 32.8511C80.005 33.5701 79.792 34.2331 79.545 34.8401C79.297 35.4461 79.039 35.9691 78.769 36.4071C78.499 36.8451 78.235 37.1881 77.977 37.4351Z" fill="#2F2352"/>
<path d="M70.116 38.328H68.043L70.065 31.064C70.166 30.727 70.2 30.491 70.166 30.356C70.133 30.221 70.032 30.154 69.863 30.154C69.65 30.154 69.453 30.261 69.273 30.474C69.093 30.687 68.908 31.064 68.717 31.604L68.43 32.395H68.11L68.548 31.131C68.706 30.681 68.902 30.334 69.138 30.086C69.374 29.828 69.633 29.648 69.914 29.547C70.194 29.446 70.481 29.395 70.774 29.395C71.133 29.395 71.397 29.468 71.565 29.615C71.7437 29.7585 71.8639 29.9622 71.903 30.188C71.959 30.424 71.97 30.682 71.936 30.963C71.914 31.233 71.869 31.497 71.801 31.755L71.531 32.812L71.558 32.739L71.599 32.632C71.914 31.834 72.217 31.199 72.509 30.727C72.813 30.244 73.133 29.901 73.47 29.699C73.8002 29.4983 74.1796 29.3931 74.566 29.395C74.97 29.395 75.279 29.513 75.493 29.749C75.717 29.985 75.83 30.277 75.83 30.626C75.83 30.906 75.762 31.171 75.627 31.418C75.4962 31.6498 75.3113 31.8464 75.088 31.991C74.8652 32.1284 74.6076 32.1985 74.346 32.193C74.066 32.193 73.841 32.12 73.672 31.974C73.515 31.828 73.436 31.614 73.436 31.334C73.436 31.086 73.492 30.862 73.605 30.659C73.717 30.457 73.863 30.289 74.043 30.154C74.223 30.008 74.419 29.907 74.633 29.85C74.6093 29.827 74.5805 29.8099 74.549 29.8C74.5266 29.7925 74.5035 29.7874 74.48 29.785C74.4633 29.7835 74.4467 29.7828 74.43 29.783C74.184 29.783 73.93 29.873 73.672 30.053C73.414 30.221 73.144 30.497 72.863 30.879C72.583 31.261 72.296 31.766 72.003 32.395C71.6735 33.1388 71.3811 33.8984 71.127 34.671C71 35.044 70.872 35.447 70.744 35.878L70.116 38.328Z" fill="#2F2352"/>
<path fill-rule="evenodd" clip-rule="evenodd" d="M66.9627 27.019C66.4007 26.614 65.5018 26.412 64.2658 26.412C63.8838 26.412 63.5018 26.418 63.1188 26.429C62.7488 26.44 62.3218 26.446 61.8388 26.446H60.9958C60.6918 26.434 60.4057 26.429 60.1357 26.429C59.911 26.4191 59.6863 26.4078 59.4618 26.395L59.3778 26.732C59.8158 26.732 60.1138 26.788 60.2708 26.901C60.4398 27.001 60.5178 27.159 60.5068 27.373C60.4841 27.6459 60.4389 27.9165 60.3717 28.182L58.1468 36.542C58.0468 36.946 57.9337 37.25 57.8097 37.452C57.6978 37.6452 57.5177 37.7897 57.3048 37.857C57.0908 37.924 56.7928 37.969 56.4108 37.991L56.3438 38.328C56.5337 38.318 56.7648 38.312 57.0338 38.312C57.3038 38.3 57.5908 38.295 57.8938 38.295C58.742 38.2692 59.5909 38.2749 60.4388 38.312C60.8998 38.322 61.3218 38.329 61.7038 38.329C62.4338 38.329 63.1248 38.255 63.7768 38.109C64.3777 37.9727 64.9525 37.7397 65.4787 37.419C65.9495 37.1386 66.3479 36.7515 66.6418 36.289C66.9338 35.839 67.0798 35.312 67.0798 34.705C67.0798 34.019 66.7998 33.429 66.2378 32.935C65.6878 32.44 64.8158 32.148 63.6248 32.058C64.3678 31.9513 65.0898 31.7297 65.7648 31.401C66.3948 31.075 66.8888 30.676 67.2488 30.204C67.6111 29.7559 67.8075 29.1963 67.8048 28.62C67.8048 27.946 67.5257 27.412 66.9627 27.019ZM61.5828 32.278L60.4558 36.542C60.3888 36.822 60.3438 37.07 60.3218 37.283C60.3098 37.497 60.3657 37.66 60.4897 37.773C60.6137 37.885 60.8438 37.941 61.1808 37.941C61.9788 37.941 62.6307 37.789 63.1357 37.486C63.6306 37.195 64.0248 36.76 64.2658 36.239C64.5128 35.699 64.6358 35.092 64.6358 34.419C64.6358 34.002 64.5628 33.637 64.4168 33.323C64.2882 33.004 64.057 32.737 63.7598 32.564C63.4568 32.373 63.0517 32.278 62.5457 32.278H61.5828ZM61.6588 31.991H62.4288C63.0688 31.991 63.6137 31.828 64.0627 31.502C64.5237 31.165 64.8728 30.727 65.1088 30.188C65.3545 29.654 65.4808 29.0728 65.4787 28.485C65.4787 27.923 65.3668 27.491 65.1418 27.187C64.9288 26.884 64.5518 26.732 64.0118 26.732C63.6198 26.732 63.3388 26.811 63.1698 26.968C63.0017 27.114 62.8558 27.434 62.7318 27.928L61.6588 31.991Z" fill="#2F2352"/>
</g>
<defs>
<clipPath id="clip0_7220_12063">
<rect width="174" height="39" fill="white"/>
</clipPath>
</defs>
</svg>
