<svg width="32" height="32" viewBox="0 0 32 32" fill="none" xmlns="http://www.w3.org/2000/svg">
<g clip-path="url(#clip0_721_4068)">
<path d="M31.5 0.196429C31.8929 0.482143 32.0536 0.863095 31.9822 1.33929L27.4107 28.7679C27.3512 29.1131 27.1607 29.381 26.8393 29.5714C26.6727 29.6667 26.4881 29.7143 26.2857 29.7143C26.1548 29.7143 26.0119 29.6845 25.8572 29.625L17.7679 26.3214L13.4465 31.5893C13.2322 31.8631 12.9405 32 12.5715 32C12.4167 32 12.2857 31.9762 12.1786 31.9286C11.9524 31.8452 11.7709 31.7054 11.634 31.5089C11.4971 31.3125 11.4286 31.0952 11.4286 30.8571V24.625L26.8572 5.71429L7.76789 22.2321L0.714317 19.3393C0.273841 19.1726 0.0357453 18.8452 3.10021e-05 18.3571C-0.0237785 17.881 0.166698 17.5298 0.57146 17.3036L30.2857 0.160714C30.4643 0.0535714 30.6548 0 30.8572 0C31.0953 0 31.3096 0.0654762 31.5 0.196429Z" fill="url(#paint0_linear_721_4068)"/>
</g>
<defs>
<linearGradient id="paint0_linear_721_4068" x1="-0.00195312" y1="16" x2="31.9987" y2="16" gradientUnits="userSpaceOnUse">
<stop stop-color="#001FCC"/>
<stop offset="1" stop-color="#9D00FF"/>
</linearGradient>
<clipPath id="clip0_721_4068">
<rect width="32" height="32" fill="white"/>
</clipPath>
</defs>
</svg>
