<svg width="58" height="59" viewBox="0 0 58 59" fill="none" xmlns="http://www.w3.org/2000/svg">
<g filter="url(#filter0_d_535_650)">
<path d="M19.0115 17.0118C19.0115 11.4953 23.489 7.0233 29.0055 7.0233C34.5219 7.0233 38.9995 11.4953 38.9995 17.0118C38.9995 22.5282 34.5219 27.0002 29.0055 27.0002C23.489 27.0002 19.0115 22.5282 19.0115 17.0118Z" fill="url(#paint0_linear_535_650)"/>
<path d="M21.8608 17.0118C21.8608 13.071 25.0606 9.87261 29.0055 9.87261C32.9504 9.87261 36.1501 13.071 36.1501 17.0118C36.1501 20.9526 32.9504 24.1509 29.0055 24.1509C25.0606 24.1509 21.8608 20.9526 21.8608 17.0118Z" stroke="white" stroke-opacity="0.2" stroke-width="5.69863"/>
<path d="M21.3458 17.1346C21.3458 12.839 24.8324 9.35677 29.128 9.35677C33.4236 9.35677 36.9102 12.839 36.9102 17.1346C36.9102 21.4303 33.4236 24.9125 29.128 24.9125C24.8324 24.9125 21.3458 21.4303 21.3458 17.1346Z" fill="url(#paint1_linear_535_650)"/>
</g>
<defs>
<filter id="filter0_d_535_650" x="0.242012" y="0.747354" width="57.516" height="57.5162" filterUnits="userSpaceOnUse" color-interpolation-filters="sRGB">
<feFlood flood-opacity="0" result="BackgroundImageFix"/>
<feColorMatrix in="SourceAlpha" type="matrix" values="0 0 0 0 0 0 0 0 0 0 0 0 0 0 0 0 0 0 127 0" result="hardAlpha"/>
<feOffset dy="12.5053"/>
<feGaussianBlur stdDeviation="9.37899"/>
<feComposite in2="hardAlpha" operator="out"/>
<feColorMatrix type="matrix" values="0 0 0 0 0.917647 0 0 0 0 0.690196 0 0 0 0 0.12549 0 0 0 0.4 0"/>
<feBlend mode="normal" in2="BackgroundImageFix" result="effect1_dropShadow_535_650"/>
<feBlend mode="normal" in="SourceGraphic" in2="effect1_dropShadow_535_650" result="shape"/>
</filter>
<linearGradient id="paint0_linear_535_650" x1="22.5211" y1="8.89405" x2="33.4757" y2="26.1706" gradientUnits="userSpaceOnUse">
<stop stop-color="#FFE092"/>
<stop offset="1" stop-color="#E3A302"/>
</linearGradient>
<linearGradient id="paint1_linear_535_650" x1="24.0787" y1="10.8135" x2="32.6089" y2="24.2665" gradientUnits="userSpaceOnUse">
<stop stop-color="#FFE092"/>
<stop offset="1" stop-color="#E3A302"/>
</linearGradient>
</defs>
</svg>
