<svg width="25" height="24" viewBox="0 0 25 24" fill="none" xmlns="http://www.w3.org/2000/svg">
<path opacity="0.3" d="M9.5 10C10.3284 10 11 9.32843 11 8.5C11 7.67157 10.3284 7 9.5 7C8.67157 7 8 7.67157 8 8.5C8 9.32843 8.67157 10 9.5 10Z" fill="url(#paint0_linear_1205_3371)"/>
<path opacity="0.3" d="M4.83984 17H14.1598C13.3198 16.42 11.2898 15.75 9.49984 15.75C7.70984 15.75 5.67984 16.42 4.83984 17Z" fill="url(#paint1_linear_1205_3371)"/>
<path d="M9.5 12C11.43 12 13 10.43 13 8.5C13 6.57 11.43 5 9.5 5C7.57 5 6 6.57 6 8.5C6 10.43 7.57 12 9.5 12ZM9.5 7C10.33 7 11 7.67 11 8.5C11 9.33 10.33 10 9.5 10C8.67 10 8 9.33 8 8.5C8 7.67 8.67 7 9.5 7ZM9.5 13.75C7.16 13.75 2.5 14.92 2.5 17.25V19H16.5V17.25C16.5 14.92 11.84 13.75 9.5 13.75ZM4.84 17C5.68 16.42 7.71 15.75 9.5 15.75C11.29 15.75 13.32 16.42 14.16 17H4.84ZM16.54 13.81C17.7 14.65 18.5 15.77 18.5 17.25V19H22.5V17.25C22.5 15.23 19 14.08 16.54 13.81ZM15.5 12C17.43 12 19 10.43 19 8.5C19 6.57 17.43 5 15.5 5C14.96 5 14.46 5.13 14 5.35C14.63 6.24 15 7.33 15 8.5C15 9.67 14.63 10.76 14 11.65C14.46 11.87 14.96 12 15.5 12Z" fill="url(#paint2_linear_1205_3371)"/>
<defs>
<linearGradient id="paint0_linear_1205_3371" x1="8" y1="8.5" x2="11" y2="8.5" gradientUnits="userSpaceOnUse">
<stop stop-color="#001FCC"/>
<stop offset="1" stop-color="#9D00FF"/>
</linearGradient>
<linearGradient id="paint1_linear_1205_3371" x1="4.83984" y1="16.375" x2="14.1598" y2="16.375" gradientUnits="userSpaceOnUse">
<stop stop-color="#001FCC"/>
<stop offset="1" stop-color="#9D00FF"/>
</linearGradient>
<linearGradient id="paint2_linear_1205_3371" x1="2.5" y1="12" x2="22.5" y2="12" gradientUnits="userSpaceOnUse">
<stop stop-color="#001FCC"/>
<stop offset="1" stop-color="#9D00FF"/>
</linearGradient>
</defs>
</svg>
