<svg width="24" height="24" viewBox="0 0 24 24" fill="none" xmlns="http://www.w3.org/2000/svg">
<path opacity="0.3" d="M16 7.57999L10.5 5.17999L5 7.57999V11.18C5 14.68 7.33 17.92 10.5 18.92C10.75 18.84 10.99 18.72 11.23 18.62C11.08 18.11 11 17.56 11 17C11 14.03 13.16 11.57 16 11.09V7.57999Z" fill="url(#paint0_linear_535_589)"/>
<path opacity="0.3" d="M17 13C14.79 13 13 14.79 13 17C13 19.21 14.79 21 17 21C19.21 21 21 19.21 21 17C21 14.79 19.21 13 17 13ZM17 14.38C17.62 14.38 18.12 14.89 18.12 15.5C18.12 16.11 17.61 16.62 17 16.62C16.39 16.62 15.88 16.11 15.88 15.5C15.88 14.89 16.38 14.38 17 14.38ZM17 19.75C16.07 19.75 15.26 19.29 14.76 18.58C14.81 17.86 16.27 17.5 17 17.5C17.73 17.5 19.19 17.86 19.24 18.58C18.74 19.29 17.93 19.75 17 19.75Z" fill="url(#paint1_linear_535_589)"/>
<path d="M17 16.62C17.6186 16.62 18.12 16.1186 18.12 15.5C18.12 14.8814 17.6186 14.38 17 14.38C16.3814 14.38 15.88 14.8814 15.88 15.5C15.88 16.1186 16.3814 16.62 17 16.62Z" fill="url(#paint2_linear_535_589)"/>
<path d="M18 11.09V6.27L10.5 3L3 6.27V11.18C3 15.72 6.2 19.97 10.5 21C11.05 20.87 11.58 20.68 12.1 20.45C12.651 21.2383 13.3842 21.8818 14.2373 22.3258C15.0905 22.7698 16.0382 23.0011 17 23C20.31 23 23 20.31 23 17C23 14.03 20.84 11.57 18 11.09ZM11 17C11 17.56 11.08 18.11 11.23 18.62C10.99 18.73 10.75 18.84 10.5 18.92C7.33 17.92 5 14.68 5 11.18V7.58L10.5 5.18L16 7.58V11.09C13.16 11.57 11 14.03 11 17ZM17 21C14.79 21 13 19.21 13 17C13 14.79 14.79 13 17 13C19.21 13 21 14.79 21 17C21 19.21 19.21 21 17 21Z" fill="url(#paint3_linear_535_589)"/>
<path d="M17 17.5C16.27 17.5 14.81 17.86 14.76 18.58C15.26 19.29 16.08 19.75 17 19.75C17.92 19.75 18.74 19.29 19.24 18.58C19.19 17.86 17.73 17.5 17 17.5Z" fill="url(#paint4_linear_535_589)"/>
<defs>
<linearGradient id="paint0_linear_535_589" x1="5" y1="12.05" x2="16" y2="12.05" gradientUnits="userSpaceOnUse">
<stop stop-color="#001FCC"/>
<stop offset="1" stop-color="#9D00FF"/>
</linearGradient>
<linearGradient id="paint1_linear_535_589" x1="13" y1="17" x2="21" y2="17" gradientUnits="userSpaceOnUse">
<stop stop-color="#001FCC"/>
<stop offset="1" stop-color="#9D00FF"/>
</linearGradient>
<linearGradient id="paint2_linear_535_589" x1="15.88" y1="15.5" x2="18.12" y2="15.5" gradientUnits="userSpaceOnUse">
<stop stop-color="#001FCC"/>
<stop offset="1" stop-color="#9D00FF"/>
</linearGradient>
<linearGradient id="paint3_linear_535_589" x1="3" y1="13" x2="23" y2="13" gradientUnits="userSpaceOnUse">
<stop stop-color="#001FCC"/>
<stop offset="1" stop-color="#9D00FF"/>
</linearGradient>
<linearGradient id="paint4_linear_535_589" x1="14.76" y1="18.625" x2="19.24" y2="18.625" gradientUnits="userSpaceOnUse">
<stop stop-color="#001FCC"/>
<stop offset="1" stop-color="#9D00FF"/>
</linearGradient>
</defs>
</svg>
