<svg width="24" height="24" viewBox="0 0 24 24" fill="none" xmlns="http://www.w3.org/2000/svg">
<path opacity="0.3" d="M16 7.57969L10.5 5.17969L5 7.57969V11.1797C5 14.6797 7.33 17.9197 10.5 18.9197C10.75 18.8397 10.99 18.7197 11.23 18.6197C11.08 18.1097 11 17.5597 11 16.9997C11 14.0297 13.16 11.5697 16 11.0897V7.57969Z" fill="#31353B"/>
<path opacity="0.3" d="M17 13C14.79 13 13 14.79 13 17C13 19.21 14.79 21 17 21C19.21 21 21 19.21 21 17C21 14.79 19.21 13 17 13ZM17 14.38C17.62 14.38 18.12 14.89 18.12 15.5C18.12 16.11 17.61 16.62 17 16.62C16.39 16.62 15.88 16.11 15.88 15.5C15.88 14.89 16.38 14.38 17 14.38ZM17 19.75C16.07 19.75 15.26 19.29 14.76 18.58C14.81 17.86 16.27 17.5 17 17.5C17.73 17.5 19.19 17.86 19.24 18.58C18.74 19.29 17.93 19.75 17 19.75Z" fill="#31353B"/>
<path d="M16.9999 16.6199C17.6184 16.6199 18.1199 16.1184 18.1199 15.4999C18.1199 14.8813 17.6184 14.3799 16.9999 14.3799C16.3813 14.3799 15.8799 14.8813 15.8799 15.4999C15.8799 16.1184 16.3813 16.6199 16.9999 16.6199Z" fill="#31353B"/>
<path d="M18 11.09V6.27L10.5 3L3 6.27V11.18C3 15.72 6.2 19.97 10.5 21C11.05 20.87 11.58 20.68 12.1 20.45C12.651 21.2383 13.3842 21.8818 14.2373 22.3258C15.0905 22.7698 16.0382 23.0011 17 23C20.31 23 23 20.31 23 17C23 14.03 20.84 11.57 18 11.09ZM11 17C11 17.56 11.08 18.11 11.23 18.62C10.99 18.73 10.75 18.84 10.5 18.92C7.33 17.92 5 14.68 5 11.18V7.58L10.5 5.18L16 7.58V11.09C13.16 11.57 11 14.03 11 17ZM17 21C14.79 21 13 19.21 13 17C13 14.79 14.79 13 17 13C19.21 13 21 14.79 21 17C21 19.21 19.21 21 17 21Z" fill="#31353B"/>
<path d="M16.9998 17.5C16.2698 17.5 14.8098 17.86 14.7598 18.58C15.2598 19.29 16.0798 19.75 16.9998 19.75C17.9198 19.75 18.7398 19.29 19.2398 18.58C19.1898 17.86 17.7298 17.5 16.9998 17.5Z" fill="#31353B"/>
</svg>
