<svg width="32" height="32" viewBox="0 0 32 32" fill="none" xmlns="http://www.w3.org/2000/svg">
<path d="M4.39467 27.4694L12.88 18.9841M23.5653 15.2108L21.0253 22.8321C20.9846 22.954 20.9151 23.0643 20.8228 23.1536C20.7304 23.243 20.6179 23.3088 20.4947 23.3454L4.924 27.9748C4.78372 28.0164 4.6347 28.0188 4.49316 27.9817C4.35162 27.9445 4.22298 27.8692 4.12124 27.7641C4.0195 27.6589 3.94855 27.5278 3.91613 27.3851C3.8837 27.2424 3.89104 27.0936 3.93734 26.9548L8.99334 11.7894C9.02957 11.6805 9.08881 11.5807 9.16703 11.4967C9.24525 11.4128 9.34062 11.3466 9.44667 11.3028L16.6293 8.34542C16.7754 8.28511 16.936 8.26939 17.0909 8.30023C17.2459 8.33108 17.3882 8.40712 17.5 8.51875L23.372 14.3921C23.4771 14.4971 23.5508 14.6294 23.585 14.774C23.6191 14.9186 23.6123 15.0698 23.5653 15.2108Z" stroke="url(#paint0_linear_1162_2719)" stroke-width="2" stroke-linecap="round" stroke-linejoin="round"/>
<path d="M24.5372 4.24275L27.6892 7.39475C27.9261 7.62136 28.1153 7.89301 28.2458 8.19374C28.3762 8.49447 28.4453 8.81823 28.4489 9.14602C28.4525 9.47381 28.3906 9.79902 28.2669 10.1026C28.1431 10.4061 27.9599 10.6819 27.7281 10.9137C27.4963 11.1455 27.2206 11.3286 26.917 11.4524C26.6135 11.5761 26.2883 11.638 25.9605 11.6344C25.6327 11.6308 25.309 11.5617 25.0082 11.4313C24.7075 11.3008 24.4358 11.1116 24.2092 10.8747L21.0559 7.72275C20.6111 7.25788 20.3661 6.63734 20.3732 5.99402C20.3803 5.3507 20.639 4.73573 21.094 4.28081C21.5489 3.82588 22.1638 3.56716 22.8072 3.56005C23.4505 3.55294 24.0724 3.79799 24.5372 4.24275Z" fill="url(#paint1_linear_1162_2719)" stroke="url(#paint2_linear_1162_2719)" stroke-width="2" stroke-linecap="round" stroke-linejoin="round"/>
<path d="M15.7081 16.1549C15.5236 15.9638 15.3029 15.8115 15.0589 15.7066C14.8149 15.6018 14.5525 15.5467 14.2869 15.5443C14.0214 15.542 13.758 15.5926 13.5122 15.6932C13.2664 15.7938 13.0431 15.9423 12.8553 16.1301C12.6675 16.3178 12.519 16.5411 12.4185 16.7869C12.3179 17.0327 12.2673 17.2961 12.2696 17.5617C12.2719 17.8272 12.3271 18.0897 12.4319 18.3337C12.5367 18.5777 12.6891 18.7984 12.8801 18.9829C13.2573 19.3472 13.7625 19.5488 14.2869 19.5442C14.8113 19.5396 15.3129 19.3293 15.6837 18.9585C16.0546 18.5877 16.2649 18.086 16.2695 17.5617C16.274 17.0373 16.0724 16.5321 15.7081 16.1549Z" stroke="url(#paint3_linear_1162_2719)" stroke-width="2" stroke-linecap="round" stroke-linejoin="round"/>
<defs>
<linearGradient id="paint0_linear_1162_2719" x1="3.89624" y1="18.1463" x2="23.6064" y2="18.1463" gradientUnits="userSpaceOnUse">
<stop stop-color="#001FCC"/>
<stop offset="1" stop-color="#9D00FF"/>
</linearGradient>
<linearGradient id="paint1_linear_1162_2719" x1="20.373" y1="7.59723" x2="28.449" y2="7.59723" gradientUnits="userSpaceOnUse">
<stop stop-color="#001FCC"/>
<stop offset="1" stop-color="#9D00FF"/>
</linearGradient>
<linearGradient id="paint2_linear_1162_2719" x1="20.373" y1="7.59723" x2="28.449" y2="7.59723" gradientUnits="userSpaceOnUse">
<stop stop-color="#001FCC"/>
<stop offset="1" stop-color="#9D00FF"/>
</linearGradient>
<linearGradient id="paint3_linear_1162_2719" x1="12.2695" y1="17.5443" x2="16.2695" y2="17.5443" gradientUnits="userSpaceOnUse">
<stop stop-color="#001FCC"/>
<stop offset="1" stop-color="#9D00FF"/>
</linearGradient>
</defs>
</svg>
