<svg width="32" height="32" viewBox="0 0 32 32" fill="none" xmlns="http://www.w3.org/2000/svg">
<path d="M4.39491 27.4688L12.8802 18.9834M23.5656 15.2101L21.0256 22.8314C20.9849 22.9533 20.9154 23.0636 20.823 23.153C20.7306 23.2423 20.6181 23.3081 20.4949 23.3448L4.92425 27.9741C4.78397 28.0158 4.63495 28.0181 4.49341 27.981C4.35186 27.9439 4.22322 27.8686 4.12148 27.7634C4.01974 27.6582 3.9488 27.5272 3.91637 27.3845C3.88395 27.2418 3.89128 27.0929 3.93758 26.9541L8.99358 11.7888C9.02981 11.6799 9.08905 11.5801 9.16727 11.4961C9.24549 11.4121 9.34086 11.346 9.44691 11.3021L16.6296 8.34476C16.7756 8.28445 16.9362 8.26873 17.0912 8.29958C17.2461 8.33042 17.3885 8.40646 17.5002 8.51809L23.3722 14.3914C23.4773 14.4965 23.5511 14.6287 23.5852 14.7733C23.6193 14.9179 23.6126 15.0691 23.5656 15.2101Z" stroke="white" stroke-width="1.5" stroke-linecap="round" stroke-linejoin="round"/>
<path d="M24.5372 4.24242L27.6892 7.39442C27.9261 7.62103 28.1153 7.89268 28.2458 8.19341C28.3762 8.49414 28.4453 8.8179 28.4489 9.14569C28.4525 9.47348 28.3906 9.79869 28.2669 10.1022C28.1431 10.4058 27.9599 10.6815 27.7281 10.9133C27.4963 11.1451 27.2206 11.3283 26.917 11.4521C26.6135 11.5758 26.2883 11.6377 25.9605 11.6341C25.6327 11.6305 25.309 11.5614 25.0082 11.4309C24.7075 11.3005 24.4358 11.1113 24.2092 10.8744L21.0559 7.72242C20.6111 7.25755 20.3661 6.63701 20.3732 5.99369C20.3803 5.35037 20.639 4.7354 21.094 4.28048C21.5489 3.82555 22.1638 3.56683 22.8072 3.55972C23.4505 3.55261 24.0724 3.79767 24.5372 4.24242Z" fill="white" stroke="white" stroke-width="1.5" stroke-linecap="round" stroke-linejoin="round"/>
<path d="M15.7081 16.1545C15.5236 15.9635 15.3029 15.8111 15.0589 15.7063C14.8149 15.6015 14.5525 15.5463 14.2869 15.544C14.0214 15.5417 13.758 15.5923 13.5122 15.6929C13.2664 15.7934 13.0431 15.9419 12.8553 16.1297C12.6675 16.3175 12.519 16.5408 12.4185 16.7866C12.3179 17.0324 12.2673 17.2958 12.2696 17.5613C12.2719 17.8269 12.3271 18.0893 12.4319 18.3333C12.5367 18.5773 12.6891 18.798 12.8801 18.9825C13.2573 19.3468 13.7625 19.5484 14.2869 19.5439C14.8113 19.5393 15.3129 19.329 15.6837 18.9582C16.0546 18.5873 16.2649 18.0857 16.2695 17.5613C16.274 17.0369 16.0724 16.5317 15.7081 16.1545Z" stroke="white" stroke-width="1.5" stroke-linecap="round" stroke-linejoin="round"/>
</svg>
