<svg width="24" height="24" viewBox="0 0 24 24" fill="none" xmlns="http://www.w3.org/2000/svg">
<path d="M4.2229 13.88C4.2229 12.7578 4.2229 12.1978 4.46957 11.7189C4.71512 11.2411 5.17179 10.9145 6.08401 10.2634L10.7096 6.95892C11.3318 6.51447 11.6451 6.29114 12.0007 6.29114C12.3562 6.29114 12.6685 6.51336 13.2918 6.95892L17.9173 10.2622C18.8296 10.9145 19.2862 11.24 19.5318 11.7189C19.7773 12.1978 19.7785 12.7578 19.7785 13.8789V19.37C19.7785 20.4178 19.7785 20.9411 19.4529 21.2667C19.1273 21.5922 18.604 21.5922 17.5562 21.5922H6.44512C5.39734 21.5922 4.87401 21.5922 4.54846 21.2667C4.2229 20.9411 4.2229 20.4178 4.2229 19.37V13.88Z" fill="url(#paint0_linear_535_568)" fill-opacity="0.25"/>
<path d="M2 12.0222C2 12.3178 2 12.4667 2.09333 12.5122C2.18667 12.5578 2.30444 12.4678 2.53778 12.2844L10.6356 5.98667C11.2911 5.47667 11.6189 5.22222 12 5.22222C12.3811 5.22222 12.7089 5.47778 13.3644 5.98667L21.4622 12.2844C21.6956 12.4667 21.8133 12.5578 21.9067 12.5122C22 12.4667 22 12.3178 22 12.0222V11.5678C22 11.0344 22 10.7678 21.8867 10.5367C21.7733 10.3056 21.5633 10.1411 21.1422 9.81444L13.3644 3.76444C12.7089 3.25444 12.3811 3 12 3C11.6189 3 11.2911 3.25556 10.6356 3.76444L2.85778 9.81444C2.43667 10.1411 2.22556 10.3056 2.11333 10.5367C2.00111 10.7678 2 11.0344 2 11.5678V12.0222ZM12.5556 14.9256H11.4444C10.8551 14.9256 10.2898 15.1597 9.8731 15.5764C9.45635 15.9932 9.22222 16.5584 9.22222 17.1478V21.4256C9.22222 21.5178 9.29667 21.5922 9.38889 21.5922H14.6111C14.6553 21.5922 14.6977 21.5747 14.729 21.5434C14.7602 21.5122 14.7778 21.4698 14.7778 21.4256V17.1478C14.7778 16.5584 14.5437 15.9932 14.1269 15.5764C13.7102 15.1597 13.1449 14.9256 12.5556 14.9256Z" fill="url(#paint1_linear_535_568)"/>
<path d="M18.111 3.81461H16.9999C16.6931 3.81461 16.4443 4.06334 16.4443 4.37016V7.70349C16.4443 8.01032 16.6931 8.25905 16.9999 8.25905H18.111C18.4178 8.25905 18.6666 8.01032 18.6666 7.70349V4.37016C18.6666 4.06334 18.4178 3.81461 18.111 3.81461Z" fill="url(#paint2_linear_535_568)"/>
<defs>
<linearGradient id="paint0_linear_535_568" x1="4.2229" y1="13.9417" x2="19.7785" y2="13.9417" gradientUnits="userSpaceOnUse">
<stop stop-color="#001FCC"/>
<stop offset="1" stop-color="#9D00FF"/>
</linearGradient>
<linearGradient id="paint1_linear_535_568" x1="2" y1="12.2961" x2="22" y2="12.2961" gradientUnits="userSpaceOnUse">
<stop stop-color="#001FCC"/>
<stop offset="1" stop-color="#9D00FF"/>
</linearGradient>
<linearGradient id="paint2_linear_535_568" x1="16.4443" y1="6.03683" x2="18.6666" y2="6.03683" gradientUnits="userSpaceOnUse">
<stop stop-color="#001FCC"/>
<stop offset="1" stop-color="#9D00FF"/>
</linearGradient>
</defs>
</svg>
