<svg width="24" height="24" viewBox="0 0 24 24" fill="none" xmlns="http://www.w3.org/2000/svg">
<path d="M12 15L4 10V18H20V10L12 15Z" fill="url(#paint0_linear_779_2929)" fill-opacity="0.3"/>
<path d="M3 8.06C3 7.71 3.18 7.39 3.48 7.21L12 2L20.52 7.21C20.82 7.39 21 7.71 21 8.06V18C21 18.55 20.55 19 20 19H4C3.45 19 3 18.55 3 18V8.06Z" stroke="url(#paint1_linear_779_2929)" stroke-width="2" stroke-linecap="round" stroke-linejoin="round"/>
<path d="M3 8.5L12 14L21 8.5" stroke="url(#paint2_linear_779_2929)" stroke-width="2" stroke-linecap="round" stroke-linejoin="round"/>
<defs>
<linearGradient id="paint0_linear_779_2929" x1="4" y1="14" x2="20" y2="14" gradientUnits="userSpaceOnUse">
<stop stop-color="#001FCC"/>
<stop offset="1" stop-color="#9D00FF"/>
</linearGradient>
<linearGradient id="paint1_linear_779_2929" x1="3" y1="10.5" x2="21" y2="10.5" gradientUnits="userSpaceOnUse">
<stop stop-color="#001FCC"/>
<stop offset="1" stop-color="#9D00FF"/>
</linearGradient>
<linearGradient id="paint2_linear_779_2929" x1="3" y1="11.25" x2="21" y2="11.25" gradientUnits="userSpaceOnUse">
<stop stop-color="#001FCC"/>
<stop offset="1" stop-color="#9D00FF"/>
</linearGradient>
</defs>
</svg>
