<svg width="16" height="16" viewBox="0 0 16 16" fill="none" xmlns="http://www.w3.org/2000/svg">
<path d="M14.6667 3.66666H6C5.26667 3.66666 4.66667 4.26666 4.66667 4.99999V11C4.66667 11.3536 4.80714 11.6927 5.05719 11.9428C5.30724 12.1928 5.64638 12.3333 6 12.3333H14.6667C15.4067 12.3333 16 11.74 16 11V4.99999C16 4.64637 15.8595 4.30723 15.6095 4.05718C15.3594 3.80713 15.0203 3.66666 14.6667 3.66666ZM14.6667 6.11332L10.3333 8.33332L6 6.11332V4.99999L10.3333 7.20666L14.6667 4.99999V6.11332ZM3.33333 11C3.33333 11.1133 3.35333 11.22 3.36667 11.3333H0.666667C0.298667 11.3333 0 11.0333 0 10.6667C0 10.3 0.298667 9.99999 0.666667 9.99999H3.33333V11ZM2 4.66666H3.36667C3.35333 4.77999 3.33333 4.88666 3.33333 4.99999V5.99999H2C1.63333 5.99999 1.33333 5.69999 1.33333 5.33332C1.33333 4.96666 1.63333 4.66666 2 4.66666ZM0.666667 7.99999C0.666667 7.63332 0.966667 7.33332 1.33333 7.33332H3.33333V8.66666H1.33333C0.966667 8.66666 0.666667 8.36666 0.666667 7.99999Z" fill="#555555"/>
</svg>
