<svg width="32" height="32" viewBox="0 0 32 32" fill="none" xmlns="http://www.w3.org/2000/svg">
<path d="M13.3337 5.33301C11.9192 5.33301 10.5626 5.89491 9.56242 6.8951C8.56223 7.8953 8.00033 9.25185 8.00033 10.6663C8.00033 12.0808 8.56223 13.4374 9.56242 14.4376C10.5626 15.4378 11.9192 15.9997 13.3337 15.9997C14.7481 15.9997 16.1047 15.4378 17.1049 14.4376C18.1051 13.4374 18.667 12.0808 18.667 10.6663C18.667 9.25185 18.1051 7.8953 17.1049 6.8951C16.1047 5.89491 14.7481 5.33301 13.3337 5.33301ZM23.3337 17.333C20.0003 17.333 17.3337 19.9997 17.3337 23.333C17.3337 26.6663 20.0003 29.333 23.3337 29.333C26.667 29.333 29.3337 26.6663 29.3337 23.333C29.3337 19.9997 26.667 17.333 23.3337 17.333ZM13.3337 18.6663C7.44033 18.6663 2.66699 21.053 2.66699 23.9997V26.6663H15.3337C14.8936 25.6101 14.667 24.4772 14.667 23.333C14.6727 21.7521 15.1107 20.2029 15.9337 18.853C15.0937 18.7463 14.2403 18.6663 13.3337 18.6663ZM23.3337 19.333C25.547 19.333 27.3337 21.1197 27.3337 23.333C27.3337 24.0797 27.1337 24.773 26.7737 25.333L21.3337 19.893C21.8937 19.533 22.587 19.333 23.3337 19.333ZM19.8937 21.333L25.3337 26.773C24.7737 27.133 24.0803 27.333 23.3337 27.333C21.1203 27.333 19.3337 25.5463 19.3337 23.333C19.3337 22.5863 19.5337 21.893 19.8937 21.333Z" fill="white"/>
</svg>
