<svg width="16" height="16" viewBox="0 0 16 16" fill="none" xmlns="http://www.w3.org/2000/svg">
<path opacity="0.2" d="M8 8.06812V14.5C7.91602 14.4997 7.83348 14.4782 7.76 14.4375L2.26 11.4262C2.18147 11.3833 2.11591 11.32 2.07017 11.2431C2.02444 11.1661 2.0002 11.0783 2 10.9887V5.01125C2.0002 4.94122 2.0151 4.87202 2.04375 4.80812L8 8.06812Z" fill="#6E6E6E"/>
<path d="M13.98 4.13437L8.48 1.125C8.33305 1.0438 8.16789 1.00121 8 1.00121C7.83211 1.00121 7.66695 1.0438 7.52 1.125L2.02 4.13562C1.86293 4.22157 1.73181 4.3481 1.64034 4.50202C1.54888 4.65593 1.50041 4.83158 1.5 5.01062V10.9881C1.50041 11.1672 1.54888 11.3428 1.64034 11.4967C1.73181 11.6507 1.86293 11.7772 2.02 11.8631L7.52 14.8737C7.66695 14.9549 7.83211 14.9975 8 14.9975C8.16789 14.9975 8.33305 14.9549 8.48 14.8737L13.98 11.8631C14.1371 11.7772 14.2682 11.6507 14.3597 11.4967C14.4511 11.3428 14.4996 11.1672 14.5 10.9881V5.01125C14.4999 4.83189 14.4516 4.65585 14.3601 4.50157C14.2686 4.3473 14.1373 4.22047 13.98 4.13437ZM8 2L13.0212 4.75L11.1606 5.76875L6.13875 3.01875L8 2ZM8 7.5L2.97875 4.75L5.0975 3.59L10.1187 6.34L8 7.5ZM2.5 5.625L7.5 8.36125V13.7231L2.5 10.9888V5.625ZM13.5 10.9862L8.5 13.7231V8.36375L10.5 7.26937V9.5C10.5 9.63261 10.5527 9.75979 10.6464 9.85355C10.7402 9.94732 10.8674 10 11 10C11.1326 10 11.2598 9.94732 11.3536 9.85355C11.4473 9.75979 11.5 9.63261 11.5 9.5V6.72188L13.5 5.625V10.9856V10.9862Z" fill="#6E6E6E"/>
</svg>
