<svg width="32" height="32" viewBox="0 0 32 32" fill="none" xmlns="http://www.w3.org/2000/svg">
<path opacity="0.2" d="M27.9612 5.27281L20.6837 29.2728C20.6281 29.4684 20.5143 29.6423 20.3574 29.7716C20.2004 29.9008 20.0078 29.9791 19.8052 29.9961C19.6027 30.013 19.3997 29.9679 19.2235 29.8666C19.0472 29.7653 18.906 29.6126 18.8187 29.4291L13.4999 18.5003L2.57244 13.1816C2.38886 13.0942 2.23624 12.953 2.13495 12.7768C2.03365 12.6005 1.98847 12.3976 2.00545 12.195C2.02242 11.9924 2.10073 11.7998 2.22994 11.6429C2.35916 11.4859 2.53314 11.3721 2.72869 11.3166L26.7287 4.03906C26.8997 3.99114 27.0803 3.98961 27.2521 4.03462C27.4239 4.07964 27.5805 4.16958 27.706 4.2952C27.8315 4.42083 27.9213 4.5776 27.9662 4.74941C28.011 4.92123 28.0093 5.10188 27.9612 5.27281Z" fill="url(#paint0_linear_3198_3576)"/>
<path d="M28.4149 3.58533C28.1634 3.334 27.8494 3.15425 27.5054 3.06461C27.1613 2.97497 26.7996 2.97867 26.4574 3.07533H26.4386L2.44615 10.3553C2.05664 10.4676 1.71044 10.6955 1.45342 11.009C1.1964 11.3225 1.0407 11.7066 1.00695 12.1106C0.973194 12.5145 1.06298 12.9192 1.26442 13.271C1.46585 13.6227 1.76942 13.905 2.1349 14.0803L12.7499 19.2503L17.9124 29.8591C18.073 30.2017 18.3283 30.4913 18.6481 30.6935C18.9679 30.8957 19.339 31.0022 19.7174 31.0003C19.7749 31.0003 19.8324 30.9978 19.8899 30.9928C20.2935 30.9601 20.6775 30.8048 20.9903 30.5476C21.3031 30.2905 21.5298 29.9438 21.6399 29.5541L28.9149 5.56158C28.9149 5.55533 28.9149 5.54908 28.9149 5.54283C29.0128 5.20154 29.0181 4.84033 28.9302 4.49631C28.8424 4.15229 28.6645 3.83786 28.4149 3.58533ZM19.7286 28.9816L19.7224 28.9991V28.9903L14.7149 18.7028L20.7149 12.7028C20.8945 12.5138 20.9932 12.262 20.9898 12.0013C20.9865 11.7405 20.8814 11.4914 20.697 11.307C20.5126 11.1226 20.2635 11.0175 20.0027 11.0141C19.742 11.0108 19.4902 11.1095 19.3011 11.2891L13.3011 17.2891L3.0099 12.2816H3.00115H3.01865L26.9999 5.00033L19.7286 28.9816Z" fill="url(#paint1_linear_3198_3576)"/>
<defs>
<linearGradient id="paint0_linear_3198_3576" x1="2.00195" y1="17.0008" x2="27.9986" y2="17.0008" gradientUnits="userSpaceOnUse">
<stop stop-color="#001FCC"/>
<stop offset="1" stop-color="#9D00FF"/>
</linearGradient>
<linearGradient id="paint1_linear_3198_3576" x1="1" y1="17.0002" x2="28.9925" y2="17.0002" gradientUnits="userSpaceOnUse">
<stop stop-color="#001FCC"/>
<stop offset="1" stop-color="#9D00FF"/>
</linearGradient>
</defs>
</svg>
