<svg width="16" height="16" viewBox="0 0 16 16" fill="none" xmlns="http://www.w3.org/2000/svg">
<path opacity="0.2" d="M13.9806 2.63625L10.3418 14.6362C10.3141 14.734 10.2572 14.821 10.1787 14.8856C10.1002 14.9502 10.0039 14.9894 9.90262 14.9979C9.80133 15.0064 9.69986 14.9838 9.61173 14.9331C9.5236 14.8825 9.453 14.8062 9.40935 14.7144L6.74997 9.25L1.28622 6.59062C1.19443 6.54697 1.11812 6.47637 1.06747 6.38824C1.01682 6.30011 0.994236 6.19864 1.00272 6.09735C1.01121 5.99606 1.05036 5.89976 1.11497 5.82129C1.17958 5.74282 1.26657 5.6859 1.36435 5.65812L13.3643 2.01938C13.4498 1.99541 13.5402 1.99465 13.626 2.01716C13.7119 2.03967 13.7903 2.08464 13.853 2.14745C13.9158 2.21026 13.9607 2.28865 13.9831 2.37455C14.0055 2.46046 14.0046 2.55078 13.9806 2.63625Z" fill="#6E6E6E"/>
<path d="M14.2074 1.7925C14.0817 1.66683 13.9247 1.57696 13.7527 1.53214C13.5807 1.48732 13.3998 1.48917 13.2287 1.5375H13.2193L1.22307 5.1775C1.02832 5.23363 0.85522 5.34761 0.726711 5.50434C0.598201 5.66107 0.52035 5.85315 0.503473 6.05512C0.486597 6.2571 0.531492 6.45944 0.632209 6.63532C0.732927 6.8112 0.884711 6.95233 1.06745 7.04L6.37495 9.625L8.9562 14.9294C9.03648 15.1007 9.16413 15.2455 9.32405 15.3466C9.48397 15.4477 9.66949 15.5009 9.8587 15.5C9.88745 15.5 9.9162 15.4987 9.94495 15.4963C10.1468 15.4799 10.3388 15.4022 10.4952 15.2737C10.6516 15.1451 10.7649 14.9717 10.8199 14.7769L14.4574 2.78063C14.4574 2.7775 14.4574 2.77438 14.4574 2.77125C14.5064 2.6006 14.5091 2.42 14.4651 2.24799C14.4212 2.07598 14.3322 1.91876 14.2074 1.7925ZM9.86432 14.4906L9.8612 14.4994V14.495L7.35745 9.35125L10.3574 6.35125C10.4473 6.25672 10.4966 6.13084 10.4949 6.00046C10.4932 5.87008 10.4407 5.74551 10.3485 5.65331C10.2563 5.56111 10.1317 5.50857 10.0014 5.50691C9.87098 5.50524 9.7451 5.55456 9.65057 5.64437L6.65057 8.64437L1.50495 6.14062H1.50057H1.50932L13.4999 2.5L9.86432 14.4906Z" fill="#6E6E6E"/>
</svg>
