<svg width="32" height="32" viewBox="0 0 32 32" fill="none" xmlns="http://www.w3.org/2000/svg">
<path opacity="0.2" d="M16 6L8.54 8.7975C8.37583 8.8591 8.23074 8.96278 8.11929 9.09815C8.00784 9.23351 7.93394 9.39581 7.905 9.56875L5 27L22.4312 24.095C22.6042 24.0661 22.7665 23.9922 22.9019 23.8807C23.0372 23.7693 23.1409 23.6242 23.2025 23.46L26 16L16 6ZM15.5 19C15.0055 19 14.5222 18.8534 14.1111 18.5787C13.7 18.304 13.3795 17.9135 13.1903 17.4567C13.0011 16.9999 12.9516 16.4972 13.048 16.0123C13.1445 15.5273 13.3826 15.0819 13.7322 14.7322C14.0819 14.3826 14.5273 14.1445 15.0123 14.048C15.4972 13.9516 15.9999 14.0011 16.4567 14.1903C16.9135 14.3795 17.304 14.7 17.5787 15.1111C17.8534 15.5222 18 16.0055 18 16.5C18 17.163 17.7366 17.7989 17.2678 18.2678C16.7989 18.7366 16.163 19 15.5 19Z" fill="url(#paint0_linear_3198_3565)"/>
<path d="M31 11.5859C31.0008 11.3232 30.9494 11.0629 30.8488 10.8202C30.7481 10.5775 30.6002 10.3572 30.4137 10.1722L21.8287 1.58595C21.643 1.40018 21.4225 1.25282 21.1798 1.15228C20.9371 1.05175 20.677 1 20.4143 1C20.1516 1 19.8915 1.05175 19.6489 1.15228C19.4062 1.25282 19.1857 1.40018 19 1.58595L15.4462 5.1397L8.19621 7.86095C7.86671 7.98383 7.57527 8.19111 7.35107 8.46204C7.12687 8.73296 6.97778 9.05803 6.91871 9.4047L4.01371 26.8359C3.98974 26.9792 3.99727 27.126 4.0358 27.2661C4.07432 27.4062 4.1429 27.5362 4.23677 27.6471C4.33064 27.758 4.44754 27.8471 4.57934 27.9082C4.71114 27.9693 4.85468 28.0009 4.99996 28.0009C5.05523 28.0007 5.1104 27.9961 5.16496 27.9872L22.595 25.0822C22.9412 25.0244 23.2661 24.8765 23.5371 24.6534C23.8081 24.4302 24.0156 24.1397 24.1387 23.8109L26.86 16.5609L30.4137 13.0009C30.6003 12.8157 30.7483 12.5952 30.8489 12.3523C30.9495 12.1094 31.0009 11.8489 31 11.5859ZM22.2662 23.1097L7.91496 25.5009L13.8362 19.5797C14.5758 19.9794 15.4345 20.0995 16.2553 19.9182C17.0762 19.7368 17.8044 19.2661 18.3067 18.592C18.809 17.918 19.052 17.0856 18.9911 16.2472C18.9302 15.4087 18.5696 14.6202 17.9752 14.0257C17.3807 13.4313 16.5922 13.0707 15.7538 13.0098C14.9153 12.9489 14.0829 13.1919 13.4089 13.6942C12.7348 14.1965 12.2641 14.9247 12.0827 15.7456C11.9014 16.5664 12.0215 17.4251 12.4212 18.1647L6.49996 24.0884L8.89121 9.73345L15.75 7.1622L24.8375 16.2509L22.2662 23.1097ZM14 16.5009C14 16.2043 14.0879 15.9143 14.2528 15.6676C14.4176 15.4209 14.6518 15.2287 14.9259 15.1151C15.2 15.0016 15.5016 14.9719 15.7926 15.0298C16.0836 15.0876 16.3508 15.2305 16.5606 15.4403C16.7704 15.6501 16.9133 15.9173 16.9711 16.2083C17.029 16.4993 16.9993 16.8009 16.8858 17.075C16.7722 17.3491 16.58 17.5833 16.3333 17.7482C16.0866 17.913 15.7966 18.0009 15.5 18.0009C15.1021 18.0009 14.7206 17.8429 14.4393 17.5616C14.158 17.2803 14 16.8988 14 16.5009ZM26 14.5859L17.4137 6.00095L20.4137 3.00095L29 11.5859L26 14.5859Z" fill="url(#paint1_linear_3198_3565)"/>
<defs>
<linearGradient id="paint0_linear_3198_3565" x1="5" y1="16.5" x2="26" y2="16.5" gradientUnits="userSpaceOnUse">
<stop stop-color="#001FCC"/>
<stop offset="1" stop-color="#9D00FF"/>
</linearGradient>
<linearGradient id="paint1_linear_3198_3565" x1="4" y1="14.5005" x2="31" y2="14.5005" gradientUnits="userSpaceOnUse">
<stop stop-color="#001FCC"/>
<stop offset="1" stop-color="#9D00FF"/>
</linearGradient>
</defs>
</svg>
