<svg width="24" height="24" viewBox="0 0 24 24" fill="none" xmlns="http://www.w3.org/2000/svg">
<path opacity="0.2" d="M17.3441 11.906L11.9066 17.3435C11.4846 17.7655 10.9123 18.0025 10.3156 18.0025C9.71893 18.0025 9.14665 17.7655 8.7247 17.3435L6.65658 15.2726C6.23551 14.8508 5.99902 14.2791 5.99902 13.6831C5.99902 13.087 6.23551 12.5154 6.65658 12.0935L12.0941 6.65603C12.516 6.2341 13.0883 5.99707 13.685 5.99707C14.2817 5.99707 14.854 6.2341 15.276 6.65603L17.3441 8.72696C17.7651 9.1488 18.0016 9.72047 18.0016 10.3165C18.0016 10.9125 17.7651 11.4842 17.3441 11.906Z" fill="url(#paint0_linear_2135_3315)"/>
<path d="M22.281 1.71899C22.2114 1.64926 22.1287 1.59394 22.0376 1.55619C21.9466 1.51845 21.849 1.49902 21.7504 1.49902C21.6519 1.49902 21.5543 1.51845 21.4632 1.55619C21.3722 1.59394 21.2894 1.64926 21.2198 1.71899L16.3073 6.63243L15.8039 6.12805C15.2406 5.56644 14.4777 5.25107 13.6823 5.25107C12.8869 5.25107 12.124 5.56644 11.5607 6.12805L9.37542 8.3143L8.78104 7.71899C8.64031 7.57826 8.44944 7.4992 8.25042 7.4992C8.05139 7.4992 7.86052 7.57826 7.71979 7.71899C7.57906 7.85972 7.5 8.05059 7.5 8.24961C7.5 8.44864 7.57906 8.63951 7.71979 8.78024L8.3151 9.37461L6.12885 11.5599C5.85021 11.8385 5.62917 12.1693 5.47836 12.5333C5.32755 12.8973 5.24993 13.2875 5.24993 13.6815C5.24993 14.0755 5.32755 14.4657 5.47836 14.8297C5.62917 15.1937 5.85021 15.5245 6.12885 15.8031L6.63323 16.3065L1.71979 21.219C1.65011 21.2887 1.59483 21.3714 1.55712 21.4624C1.51941 21.5535 1.5 21.6511 1.5 21.7496C1.5 21.8482 1.51941 21.9457 1.55712 22.0368C1.59483 22.1278 1.65011 22.2106 1.71979 22.2802C1.86052 22.421 2.05139 22.5 2.25042 22.5C2.34896 22.5 2.44654 22.4806 2.53759 22.4429C2.62863 22.4052 2.71136 22.3499 2.78104 22.2802L7.69354 17.3668L8.19698 17.8712C8.76034 18.4326 9.52323 18.7478 10.3185 18.7478C11.1139 18.7478 11.8767 18.4326 12.4401 17.8712L14.6254 15.6849L15.2198 16.2802C15.2895 16.3499 15.3722 16.4052 15.4632 16.4429C15.5543 16.4806 15.6519 16.5 15.7504 16.5C15.849 16.5 15.9465 16.4806 16.0376 16.4429C16.1286 16.4052 16.2114 16.3499 16.281 16.2802C16.3507 16.2106 16.406 16.1278 16.4437 16.0368C16.4814 15.9457 16.5008 15.8482 16.5008 15.7496C16.5008 15.6511 16.4814 15.5535 16.4437 15.4624C16.406 15.3714 16.3507 15.2887 16.281 15.219L15.6857 14.6246L17.872 12.4393C18.1506 12.1607 18.3717 11.83 18.5225 11.4659C18.6733 11.1019 18.7509 10.7118 18.7509 10.3177C18.7509 9.92371 18.6733 9.53355 18.5225 9.16953C18.3717 8.80551 18.1506 8.47476 17.872 8.19618L17.3676 7.69274L22.281 2.78024C22.3508 2.71058 22.4061 2.62787 22.4438 2.53682C22.4816 2.44577 22.501 2.34818 22.501 2.24961C22.501 2.15105 22.4816 2.05346 22.4438 1.96241C22.4061 1.87136 22.3508 1.78864 22.281 1.71899ZM11.3789 16.8127C11.0976 17.0938 10.7162 17.2517 10.3185 17.2517C9.92089 17.2517 9.53951 17.0938 9.25823 16.8127L7.1901 14.7418C6.90901 14.4605 6.75111 14.0791 6.75111 13.6815C6.75111 13.2838 6.90901 12.9025 7.1901 12.6212L9.37542 10.4349L13.5651 14.6246L11.3789 16.8127ZM16.8107 11.3809L14.6254 13.5643L10.4357 9.37461L12.622 7.1893C12.9033 6.90821 13.2846 6.75031 13.6823 6.75031C14.0799 6.75031 14.4613 6.90821 14.7426 7.1893L16.8107 9.2518C16.9501 9.39109 17.0606 9.55647 17.136 9.73848C17.2114 9.92049 17.2502 10.1156 17.2502 10.3126C17.2502 10.5096 17.2114 10.7047 17.136 10.8867C17.0606 11.0687 16.9501 11.2341 16.8107 11.3734V11.3809ZM8.30385 3.28086C8.22926 3.09612 8.23111 2.88932 8.309 2.70594C8.38689 2.52257 8.53443 2.37764 8.71917 2.30305C8.90391 2.22846 9.11071 2.23031 9.29409 2.3082C9.47746 2.38608 9.62239 2.53362 9.69698 2.71836L10.447 4.59336C10.4839 4.68484 10.5025 4.78269 10.5016 4.88134C10.5007 4.97998 10.4804 5.07749 10.4418 5.16828C10.4033 5.25908 10.3472 5.3414 10.2768 5.41052C10.2064 5.47965 10.1231 5.53424 10.0317 5.57118C9.94019 5.60811 9.84234 5.62667 9.7437 5.62578C9.64505 5.6249 9.54754 5.6046 9.45675 5.56603C9.36595 5.52747 9.28364 5.47139 9.21451 5.40102C9.14538 5.33064 9.09079 5.24734 9.05385 5.15586L8.30385 3.28086ZM2.30385 8.71836C2.34066 8.62679 2.39518 8.54338 2.46428 8.47292C2.53338 8.40245 2.61571 8.34632 2.70655 8.30774C2.79739 8.26915 2.89495 8.24888 2.99364 8.24808C3.09233 8.24727 3.19021 8.26595 3.28167 8.30305L5.15667 9.05305C5.24814 9.08999 5.33144 9.14457 5.40182 9.2137C5.4722 9.28283 5.52827 9.36514 5.56683 9.45594C5.6054 9.54674 5.6257 9.64425 5.62659 9.74289C5.62747 9.84154 5.60891 9.93939 5.57198 10.0309C5.53505 10.1223 5.48046 10.2056 5.41133 10.276C5.3422 10.3464 5.25989 10.4025 5.16909 10.441C5.07829 10.4796 4.98078 10.4999 4.88214 10.5008C4.78349 10.5017 4.68564 10.4831 4.59417 10.4462L2.71917 9.69618C2.62759 9.65937 2.54418 9.60486 2.47372 9.53575C2.40326 9.46665 2.34712 9.38432 2.30854 9.29348C2.26996 9.20264 2.24968 9.10508 2.24888 9.00639C2.24808 8.9077 2.26676 8.80982 2.30385 8.71836ZM21.697 15.2809C21.6604 15.3723 21.6062 15.4557 21.5374 15.5263C21.4686 15.5968 21.3866 15.6531 21.2961 15.6919C21.2056 15.7307 21.1083 15.7514 21.0097 15.7526C20.9112 15.7538 20.8135 15.7356 20.722 15.699L18.847 14.949C18.7553 14.9122 18.6718 14.8578 18.6012 14.7888C18.5306 14.7197 18.4742 14.6375 18.4354 14.5467C18.3966 14.4559 18.376 14.3583 18.3749 14.2596C18.3738 14.1608 18.3921 14.0628 18.4289 13.9712C18.4656 13.8795 18.52 13.796 18.5891 13.7254C18.6581 13.6548 18.7404 13.5984 18.8312 13.5596C18.922 13.5208 19.0195 13.5002 19.1183 13.4991C19.217 13.498 19.315 13.5163 19.4067 13.5531L21.2817 14.3031C21.3732 14.3399 21.4567 14.3944 21.5271 14.4635C21.5976 14.5326 21.6537 14.6149 21.6923 14.7057C21.7309 14.7966 21.7512 14.8941 21.752 14.9928C21.7528 15.0915 21.7341 15.1894 21.697 15.2809ZM15.697 20.724C15.7335 20.8155 15.7517 20.9132 15.7505 21.0117C15.7493 21.1102 15.7287 21.2075 15.6898 21.2981C15.651 21.3886 15.5947 21.4706 15.5242 21.5394C15.4537 21.6082 15.3703 21.6624 15.2789 21.699C15.1874 21.7356 15.0896 21.7537 14.9911 21.7525C14.8926 21.7513 14.7953 21.7307 14.7048 21.6919C14.6142 21.653 14.5322 21.5968 14.4634 21.5262C14.3946 21.4557 14.3404 21.3723 14.3039 21.2809L13.5539 19.4059C13.4793 19.2211 13.4811 19.0143 13.559 18.8309C13.6369 18.6476 13.7844 18.5026 13.9692 18.4281C14.1539 18.3535 14.3607 18.3553 14.5441 18.4332C14.7275 18.5111 14.8724 18.6586 14.947 18.8434L15.697 20.724Z" fill="url(#paint1_linear_2135_3315)"/>
<defs>
<linearGradient id="paint0_linear_2135_3315" x1="5.99902" y1="11.9998" x2="18.0016" y2="11.9998" gradientUnits="userSpaceOnUse">
<stop stop-color="#001FCC"/>
<stop offset="1" stop-color="#9D00FF"/>
</linearGradient>
<linearGradient id="paint1_linear_2135_3315" x1="1.5" y1="11.9995" x2="22.501" y2="11.9995" gradientUnits="userSpaceOnUse">
<stop stop-color="#001FCC"/>
<stop offset="1" stop-color="#9D00FF"/>
</linearGradient>
</defs>
</svg>
