<svg width="16" height="16" viewBox="0 0 16 16" fill="none" xmlns="http://www.w3.org/2000/svg">
<g opacity="0.2">
<path d="M14 8C14 9.18669 13.6481 10.3467 12.9888 11.3334C12.3295 12.3201 11.3925 13.0892 10.2961 13.5433C9.19975 13.9974 7.99335 14.1162 6.82946 13.8847C5.66558 13.6532 4.59648 13.0818 3.75736 12.2426C2.91825 11.4035 2.3468 10.3344 2.11529 9.17054C1.88378 8.00666 2.0026 6.80026 2.45673 5.7039C2.91085 4.60754 3.67989 3.67047 4.66658 3.01118C5.65328 2.35189 6.81331 2 8 2C9.5913 2 11.1174 2.63214 12.2426 3.75736C13.3679 4.88258 14 6.4087 14 8Z" fill="#333333"/>
<path d="M14 8C14 9.18669 13.6481 10.3467 12.9888 11.3334C12.3295 12.3201 11.3925 13.0892 10.2961 13.5433C9.19975 13.9974 7.99335 14.1162 6.82946 13.8847C5.66558 13.6532 4.59648 13.0818 3.75736 12.2426C2.91825 11.4035 2.3468 10.3344 2.11529 9.17054C1.88378 8.00666 2.0026 6.80026 2.45673 5.7039C2.91085 4.60754 3.67989 3.67047 4.66658 3.01118C5.65328 2.35189 6.81331 2 8 2C9.5913 2 11.1174 2.63214 12.2426 3.75736C13.3679 4.88258 14 6.4087 14 8Z" fill="black" fill-opacity="0.2"/>
</g>
<path d="M10.3538 9.64625C10.4002 9.69271 10.4371 9.74786 10.4622 9.80855C10.4873 9.86925 10.5003 9.9343 10.5003 10C10.5003 10.0657 10.4873 10.1308 10.4622 10.1914C10.4371 10.2521 10.4002 10.3073 10.3538 10.3538C10.3073 10.4002 10.2521 10.4371 10.1915 10.4622C10.1308 10.4873 10.0657 10.5003 10 10.5003C9.93431 10.5003 9.86925 10.4873 9.80855 10.4622C9.74786 10.4371 9.69271 10.4002 9.64625 10.3538L5.64625 6.35375C5.55243 6.25993 5.49972 6.13268 5.49972 6C5.49972 5.86732 5.55243 5.74007 5.64625 5.64625C5.74007 5.55243 5.86732 5.49972 6 5.49972C6.13268 5.49972 6.25993 5.55243 6.35375 5.64625L10.3538 9.64625ZM14.5 8C14.5 9.28558 14.1188 10.5423 13.4046 11.6112C12.6903 12.6801 11.6752 13.5132 10.4874 14.0052C9.29973 14.4972 7.99279 14.6259 6.73192 14.3751C5.47104 14.1243 4.31285 13.5052 3.40381 12.5962C2.49477 11.6872 1.8757 10.529 1.6249 9.26809C1.37409 8.00721 1.50282 6.70028 1.99479 5.51256C2.48676 4.32484 3.31988 3.30968 4.3888 2.59545C5.45772 1.88122 6.71442 1.5 8 1.5C9.72335 1.50182 11.3756 2.18722 12.5942 3.40582C13.8128 4.62441 14.4982 6.27665 14.5 8ZM13.5 8C13.5 6.9122 13.1774 5.84883 12.5731 4.94436C11.9687 4.03989 11.1098 3.33494 10.1048 2.91866C9.09977 2.50238 7.9939 2.39346 6.92701 2.60568C5.86011 2.8179 4.8801 3.34172 4.11092 4.11091C3.34173 4.8801 2.8179 5.86011 2.60568 6.927C2.39347 7.9939 2.50238 9.09977 2.91867 10.1048C3.33495 11.1098 4.0399 11.9687 4.94437 12.5731C5.84884 13.1774 6.91221 13.5 8 13.5C9.45819 13.4983 10.8562 12.9184 11.8873 11.8873C12.9184 10.8562 13.4983 9.45818 13.5 8Z" fill="#333333"/>
<path d="M10.3538 9.64625C10.4002 9.69271 10.4371 9.74786 10.4622 9.80855C10.4873 9.86925 10.5003 9.9343 10.5003 10C10.5003 10.0657 10.4873 10.1308 10.4622 10.1914C10.4371 10.2521 10.4002 10.3073 10.3538 10.3538C10.3073 10.4002 10.2521 10.4371 10.1915 10.4622C10.1308 10.4873 10.0657 10.5003 10 10.5003C9.93431 10.5003 9.86925 10.4873 9.80855 10.4622C9.74786 10.4371 9.69271 10.4002 9.64625 10.3538L5.64625 6.35375C5.55243 6.25993 5.49972 6.13268 5.49972 6C5.49972 5.86732 5.55243 5.74007 5.64625 5.64625C5.74007 5.55243 5.86732 5.49972 6 5.49972C6.13268 5.49972 6.25993 5.55243 6.35375 5.64625L10.3538 9.64625ZM14.5 8C14.5 9.28558 14.1188 10.5423 13.4046 11.6112C12.6903 12.6801 11.6752 13.5132 10.4874 14.0052C9.29973 14.4972 7.99279 14.6259 6.73192 14.3751C5.47104 14.1243 4.31285 13.5052 3.40381 12.5962C2.49477 11.6872 1.8757 10.529 1.6249 9.26809C1.37409 8.00721 1.50282 6.70028 1.99479 5.51256C2.48676 4.32484 3.31988 3.30968 4.3888 2.59545C5.45772 1.88122 6.71442 1.5 8 1.5C9.72335 1.50182 11.3756 2.18722 12.5942 3.40582C13.8128 4.62441 14.4982 6.27665 14.5 8ZM13.5 8C13.5 6.9122 13.1774 5.84883 12.5731 4.94436C11.9687 4.03989 11.1098 3.33494 10.1048 2.91866C9.09977 2.50238 7.9939 2.39346 6.92701 2.60568C5.86011 2.8179 4.8801 3.34172 4.11092 4.11091C3.34173 4.8801 2.8179 5.86011 2.60568 6.927C2.39347 7.9939 2.50238 9.09977 2.91867 10.1048C3.33495 11.1098 4.0399 11.9687 4.94437 12.5731C5.84884 13.1774 6.91221 13.5 8 13.5C9.45819 13.4983 10.8562 12.9184 11.8873 11.8873C12.9184 10.8562 13.4983 9.45818 13.5 8Z" fill="black" fill-opacity="0.2"/>
</svg>
