<svg width="33" height="33" viewBox="0 0 33 33" fill="none" xmlns="http://www.w3.org/2000/svg">
<path opacity="0.2" d="M28.5 16.5C28.5 18.8734 27.7962 21.1935 26.4776 23.1668C25.1591 25.1402 23.2849 26.6783 21.0922 27.5866C18.8995 28.4948 16.4867 28.7324 14.1589 28.2694C11.8312 27.8064 9.69295 26.6635 8.01472 24.9853C6.33649 23.3071 5.1936 21.1689 4.73058 18.8411C4.26756 16.5133 4.5052 14.1005 5.41345 11.9078C6.3217 9.71509 7.85977 7.84094 9.83316 6.52236C11.8066 5.20379 14.1266 4.5 16.5 4.5C19.6826 4.5 22.7348 5.76428 24.9853 8.01472C27.2357 10.2652 28.5 13.3174 28.5 16.5Z" fill="url(#paint0_linear_6259_26634)"/>
<path d="M18 23C18 23.2967 17.912 23.5867 17.7472 23.8334C17.5824 24.08 17.3481 24.2723 17.074 24.3858C16.7999 24.4993 16.4983 24.5291 16.2074 24.4712C15.9164 24.4133 15.6491 24.2704 15.4393 24.0607C15.2296 23.8509 15.0867 23.5836 15.0288 23.2926C14.971 23.0017 15.0007 22.7001 15.1142 22.426C15.2277 22.1519 15.42 21.9176 15.6667 21.7528C15.9133 21.588 16.2033 21.5 16.5 21.5C16.8978 21.5 17.2794 21.658 17.5607 21.9393C17.842 22.2206 18 22.6022 18 23ZM16.5 9.5C13.7425 9.5 11.5 11.5188 11.5 14V14.5C11.5 14.7652 11.6054 15.0196 11.7929 15.2071C11.9804 15.3946 12.2348 15.5 12.5 15.5C12.7652 15.5 13.0196 15.3946 13.2071 15.2071C13.3946 15.0196 13.5 14.7652 13.5 14.5V14C13.5 12.625 14.8463 11.5 16.5 11.5C18.1538 11.5 19.5 12.625 19.5 14C19.5 15.375 18.1538 16.5 16.5 16.5C16.2348 16.5 15.9804 16.6054 15.7929 16.7929C15.6054 16.9804 15.5 17.2348 15.5 17.5V18.5C15.5 18.7652 15.6054 19.0196 15.7929 19.2071C15.9804 19.3946 16.2348 19.5 16.5 19.5C16.7652 19.5 17.0196 19.3946 17.2071 19.2071C17.3946 19.0196 17.5 18.7652 17.5 18.5V18.41C19.78 17.9913 21.5 16.1725 21.5 14C21.5 11.5188 19.2575 9.5 16.5 9.5ZM29.5 16.5C29.5 19.0712 28.7376 21.5846 27.3091 23.7224C25.8807 25.8603 23.8503 27.5265 21.4749 28.5104C19.0995 29.4944 16.4856 29.7518 13.9638 29.2502C11.4421 28.7486 9.1257 27.5105 7.30762 25.6924C5.48953 23.8743 4.25141 21.5579 3.7498 19.0362C3.24819 16.5144 3.50563 13.9006 4.48957 11.5251C5.47351 9.14968 7.13975 7.11935 9.27759 5.6909C11.4154 4.26244 13.9288 3.5 16.5 3.5C19.9467 3.50364 23.2512 4.87445 25.6884 7.31163C28.1256 9.74882 29.4964 13.0533 29.5 16.5ZM27.5 16.5C27.5 14.3244 26.8549 12.1977 25.6462 10.3887C24.4375 8.57979 22.7195 7.16989 20.7095 6.33733C18.6995 5.50476 16.4878 5.28692 14.354 5.71136C12.2202 6.1358 10.2602 7.18345 8.72183 8.72183C7.18345 10.2602 6.13581 12.2202 5.71137 14.354C5.28693 16.4878 5.50477 18.6995 6.33733 20.7095C7.16989 22.7195 8.57979 24.4375 10.3887 25.6462C12.1977 26.8549 14.3244 27.5 16.5 27.5C19.4164 27.4967 22.2123 26.3367 24.2745 24.2745C26.3367 22.2123 27.4967 19.4164 27.5 16.5Z" fill="url(#paint1_linear_6259_26634)"/>
<defs>
<linearGradient id="paint0_linear_6259_26634" x1="4.5" y1="16.5" x2="28.5" y2="16.5" gradientUnits="userSpaceOnUse">
<stop stop-color="#001FCC"/>
<stop offset="1" stop-color="#9D00FF"/>
</linearGradient>
<linearGradient id="paint1_linear_6259_26634" x1="3.5" y1="16.5" x2="29.5" y2="16.5" gradientUnits="userSpaceOnUse">
<stop stop-color="#001FCC"/>
<stop offset="1" stop-color="#9D00FF"/>
</linearGradient>
</defs>
</svg>
