<svg width="33" height="32" viewBox="0 0 33 32" fill="none" xmlns="http://www.w3.org/2000/svg">
<path opacity="0.5" d="M1.83325 16C1.83325 9.08666 1.83325 5.62933 3.97992 3.47999C6.13059 1.33333 9.58792 1.33333 16.4999 1.33333C23.4119 1.33333 26.8706 1.33333 29.0199 3.47999C31.1666 5.63066 31.1666 9.088 31.1666 16C31.1666 22.912 31.1666 26.3707 29.0199 28.52C26.8693 30.6667 23.4119 30.6667 16.4999 30.6667C9.58792 30.6667 6.12925 30.6667 3.97992 28.52C1.83325 26.3693 1.83325 22.912 1.83325 16Z" fill="url(#paint0_linear_544_1464)"/>
<path d="M19.0679 19.0693C19.3946 18.8147 19.6906 18.5187 20.2839 17.9253L27.6706 10.5387C27.8492 10.36 27.7679 10.052 27.5292 9.96933C26.3747 9.5642 25.3265 8.90381 24.4626 8.03733C23.5956 7.17358 22.9348 6.12532 22.5292 4.97067C22.4479 4.73067 22.1399 4.65067 21.9612 4.82933L14.5746 12.216C13.9812 12.808 13.6852 13.1053 13.4306 13.432C13.1294 13.8168 12.8714 14.2335 12.6612 14.6747C12.4839 15.048 12.3506 15.4467 12.0866 16.2413L11.7439 17.268L11.1986 18.9027L10.6892 20.4333C10.6256 20.625 10.6165 20.8306 10.663 21.0272C10.7095 21.2237 10.8097 21.4035 10.9525 21.5464C11.0952 21.6892 11.2749 21.7896 11.4714 21.8363C11.6679 21.883 11.8735 21.8741 12.0652 21.8107L13.5986 21.3L15.2306 20.756L16.2572 20.4133C17.0532 20.148 17.4506 20.016 17.8239 19.8373C18.2666 19.6267 18.6812 19.3707 19.0679 19.0693ZM29.9839 8.22667C30.7412 7.46956 31.1667 6.44264 31.1668 5.37181C31.1669 4.30097 30.7417 3.27395 29.9846 2.51667C29.2275 1.75939 28.2005 1.33388 27.1297 1.33376C26.0589 1.33363 25.0319 1.7589 24.2746 2.516L24.0359 2.75334C23.9228 2.86467 23.8387 3.00196 23.7908 3.15324C23.743 3.30453 23.7328 3.46522 23.7612 3.62134C23.7972 3.82134 23.8639 4.11467 23.9852 4.46534C24.3118 5.40137 24.8471 6.25082 25.5506 6.94933C26.2487 7.65265 27.0977 8.18793 28.0332 8.51467C28.3839 8.63467 28.6772 8.70267 28.8772 8.73867C29.1972 8.796 29.5172 8.692 29.7466 8.46267L29.9839 8.22667Z" fill="url(#paint1_linear_544_1464)"/>
<defs>
<linearGradient id="paint0_linear_544_1464" x1="1.83325" y1="16" x2="31.1666" y2="16" gradientUnits="userSpaceOnUse">
<stop stop-color="#001FCC"/>
<stop offset="1" stop-color="#9D00FF"/>
</linearGradient>
<linearGradient id="paint1_linear_544_1464" x1="10.6338" y1="11.5998" x2="31.1668" y2="11.5998" gradientUnits="userSpaceOnUse">
<stop stop-color="#001FCC"/>
<stop offset="1" stop-color="#9D00FF"/>
</linearGradient>
</defs>
</svg>
