<svg width="24" height="24" viewBox="0 0 24 24" fill="none" xmlns="http://www.w3.org/2000/svg">
<path d="M7.50003 4.75042C7.40154 4.75042 7.30401 4.76982 7.21302 4.80751C7.12202 4.8452 7.03934 4.90044 6.9697 4.97009C6.90005 5.03973 6.84481 5.12241 6.80712 5.21341C6.76943 5.3044 6.75003 5.40193 6.75003 5.50042C6.75003 5.59891 6.76943 5.69644 6.80712 5.78743C6.84481 5.87842 6.90005 5.9611 6.9697 6.03075C7.03934 6.10039 7.12202 6.15564 7.21302 6.19333C7.30401 6.23102 7.40154 6.25042 7.50003 6.25042C7.69894 6.25042 7.88971 6.1714 8.03036 6.03075C8.17101 5.8901 8.25003 5.69933 8.25003 5.50042C8.25003 5.30151 8.17101 5.11074 8.03036 4.97009C7.88971 4.82944 7.69894 4.75042 7.50003 4.75042ZM5.25003 5.50042C5.25015 5.08795 5.36366 4.68345 5.57813 4.33113C5.79261 3.97881 6.09981 3.69223 6.46615 3.5027C6.8325 3.31317 7.24389 3.22799 7.65538 3.25647C8.06686 3.28495 8.4626 3.42599 8.79934 3.66418C9.13609 3.90237 9.40088 4.22854 9.56477 4.60705C9.72867 4.98555 9.78537 5.40183 9.72867 5.81038C9.67197 6.21894 9.50406 6.60404 9.24328 6.92362C8.98251 7.24319 8.63891 7.48493 8.25003 7.62242V11.5284C8.33669 11.4644 8.4267 11.4051 8.52003 11.3504C9.46903 10.7784 10.685 10.6114 11.718 10.4704L11.897 10.4454C13.058 10.2834 13.999 10.1234 14.674 9.66842C15.179 9.32642 15.611 8.75842 15.722 7.61242C15.2241 7.4291 14.807 7.07573 14.5444 6.61471C14.2818 6.15369 14.1905 5.61469 14.2867 5.09291C14.3829 4.57114 14.6605 4.10015 15.0703 3.76314C15.4801 3.42613 15.9958 3.24479 16.5263 3.25114C17.0569 3.25749 17.5681 3.45112 17.9697 3.79784C18.3713 4.14456 18.6375 4.62205 18.7212 5.14599C18.8049 5.66992 18.7008 6.20658 18.4272 6.66118C18.1536 7.11578 17.7282 7.45907 17.226 7.63042C17.1 9.20742 16.488 10.2524 15.514 10.9104C14.501 11.5954 13.192 11.7804 12.104 11.9304L12.079 11.9344C10.909 12.0964 9.97203 12.2264 9.29303 12.6344C8.97803 12.8244 8.73103 13.0704 8.55603 13.4164C8.37603 13.7704 8.25003 14.2724 8.25003 15.0004V16.3784C8.75072 16.5554 9.17273 16.9036 9.44148 17.3616C9.71023 17.8196 9.8084 18.3579 9.71864 18.8813C9.62888 19.4047 9.35698 19.8795 8.95099 20.2218C8.54499 20.5641 8.03106 20.7518 7.50003 20.7518C6.969 20.7518 6.45506 20.5641 6.04907 20.2218C5.64308 19.8795 5.37117 19.4047 5.28142 18.8813C5.19166 18.3579 5.28983 17.8196 5.55858 17.3616C5.82732 16.9036 6.24934 16.5554 6.75003 16.3784V7.62242C6.31124 7.46728 5.93136 7.1799 5.66271 6.79986C5.39407 6.41982 5.24989 5.96582 5.25003 5.50042ZM16.5 4.75042C16.4015 4.75042 16.304 4.76982 16.213 4.80751C16.122 4.8452 16.0393 4.90044 15.9697 4.97009C15.9001 5.03973 15.8448 5.12241 15.8071 5.21341C15.7694 5.3044 15.75 5.40193 15.75 5.50042C15.75 5.59891 15.7694 5.69644 15.8071 5.78743C15.8448 5.87842 15.9001 5.9611 15.9697 6.03075C16.0393 6.10039 16.122 6.15564 16.213 6.19333C16.304 6.23102 16.4015 6.25042 16.5 6.25042C16.6989 6.25042 16.8897 6.1714 17.0304 6.03075C17.171 5.8901 17.25 5.69933 17.25 5.50042C17.25 5.30151 17.171 5.11074 17.0304 4.97009C16.8897 4.82944 16.6989 4.75042 16.5 4.75042ZM7.50003 17.7504C7.30112 17.7504 7.11035 17.8294 6.9697 17.9701C6.82905 18.1107 6.75003 18.3015 6.75003 18.5004C6.75003 18.6993 6.82905 18.8901 6.9697 19.0307C7.11035 19.1714 7.30112 19.2504 7.50003 19.2504C7.69894 19.2504 7.88971 19.1714 8.03036 19.0307C8.17101 18.8901 8.25003 18.6993 8.25003 18.5004C8.25003 18.3015 8.17101 18.1107 8.03036 17.9701C7.88971 17.8294 7.69894 17.7504 7.50003 17.7504Z" fill="url(#paint0_linear_2084_2114)"/>
<defs>
<linearGradient id="paint0_linear_2084_2114" x1="5.24902" y1="12.0014" x2="18.7494" y2="12.0014" gradientUnits="userSpaceOnUse">
<stop stop-color="#001FCC"/>
<stop offset="1" stop-color="#9D00FF"/>
</linearGradient>
</defs>
</svg>
