<svg width="16" height="16" viewBox="0 0 16 16" fill="none" xmlns="http://www.w3.org/2000/svg">
<path opacity="0.2" d="M14.8538 9.5625L9.5625 14.8538C9.46874 14.9474 9.34161 15.0001 9.20906 15.0001C9.07651 15.0001 8.94938 14.9474 8.85563 14.8538L2.64625 8.64625C2.55266 8.55256 2.50006 8.42556 2.5 8.29313V2.5H8.29313C8.42556 2.50006 8.55255 2.55266 8.64625 2.64625L14.8538 8.85375C14.9004 8.90021 14.9375 8.95543 14.9627 9.01625C14.988 9.07706 15.001 9.14227 15.001 9.20813C15.001 9.27398 14.988 9.33919 14.9627 9.40001C14.9375 9.46082 14.9004 9.51604 14.8538 9.5625Z" fill="#6E6E6E"/>
<path d="M15.2069 8.5L9 2.29313C8.90748 2.19986 8.79734 2.12592 8.67599 2.0756C8.55464 2.02528 8.4245 1.99958 8.29313 2H2.50001C2.3674 2 2.24022 2.05268 2.14645 2.14645C2.05268 2.24022 2.00001 2.36739 2.00001 2.5V8.29313C1.99959 8.4245 2.02528 8.55464 2.0756 8.67599C2.12593 8.79734 2.19987 8.90748 2.29313 9L8.5 15.2069C8.59287 15.2998 8.70312 15.3734 8.82446 15.4237C8.9458 15.474 9.07585 15.4998 9.20719 15.4998C9.33853 15.4998 9.46859 15.474 9.58993 15.4237C9.71127 15.3734 9.82152 15.2998 9.91438 15.2069L15.2069 9.91438C15.2998 9.82151 15.3734 9.71127 15.4237 9.58992C15.474 9.46858 15.4999 9.33853 15.4999 9.20719C15.4999 9.07585 15.474 8.94579 15.4237 8.82445C15.3734 8.70311 15.2998 8.59286 15.2069 8.5ZM9.20688 14.5L3 8.29313V3H8.29313L14.5 9.20688L9.20688 14.5ZM6 5.25C6 5.39834 5.95602 5.54334 5.87361 5.66668C5.7912 5.79002 5.67406 5.88614 5.53702 5.94291C5.39997 5.99968 5.24917 6.01453 5.10369 5.98559C4.9582 5.95665 4.82456 5.88522 4.71967 5.78033C4.61479 5.67544 4.54335 5.5418 4.51442 5.39632C4.48548 5.25083 4.50033 5.10003 4.5571 4.96299C4.61386 4.82594 4.70999 4.70881 4.83333 4.6264C4.95666 4.54399 5.10167 4.5 5.25 4.5C5.44892 4.5 5.63968 4.57902 5.78033 4.71967C5.92099 4.86032 6 5.05109 6 5.25Z" fill="#6E6E6E"/>
</svg>
