<svg width="173" height="173" viewBox="0 0 173 173" fill="none" xmlns="http://www.w3.org/2000/svg">
<g clip-path="url(#clip0_782_359)">
<path fill-rule="evenodd" clip-rule="evenodd" d="M0 17.3C0 12.7118 1.82267 8.31143 5.06705 5.06705C8.31143 1.82267 12.7118 0 17.3 0L155.7 0C160.288 0 164.689 1.82267 167.933 5.06705C171.177 8.31143 173 12.7118 173 17.3V63.4333L163.773 56.5018C153.779 49.0059 141.416 45.3667 128.954 46.2524C116.493 47.138 104.768 52.489 95.9345 61.323C87.1005 70.1569 81.7495 81.881 80.8639 94.3427C79.9783 106.804 83.6175 119.167 91.1133 129.162L92.2667 130.707V173H17.3C12.7118 173 8.31143 171.177 5.06705 167.933C1.82267 164.689 0 160.288 0 155.7L0 17.3ZM92.2667 57.6667H34.6V46.1333H92.2667V57.6667ZM34.6 92.2667H69.2V80.7333H34.6V92.2667Z" fill="url(#paint0_linear_782_359)"/>
<path fill-rule="evenodd" clip-rule="evenodd" d="M132.633 57.6667C124.683 57.6655 116.91 60.0119 110.289 64.4113C103.667 68.8108 98.4919 75.0675 95.4124 82.3967C92.3329 89.7259 91.4862 97.8013 92.9783 105.61C94.4704 113.418 98.2351 120.613 103.8 126.29V167.233C103.8 168.304 104.098 169.354 104.661 170.265C105.224 171.176 106.03 171.912 106.988 172.391C107.946 172.87 109.018 173.073 110.085 172.977C111.151 172.881 112.17 172.489 113.027 171.847L132.633 157.142L152.24 171.847C153.097 172.489 154.116 172.881 155.182 172.977C156.249 173.073 157.321 172.87 158.279 172.391C159.237 171.912 160.042 171.176 160.605 170.265C161.168 169.354 161.467 168.304 161.467 167.233V126.29C167.032 120.613 170.796 113.418 172.288 105.61C173.78 97.8013 172.934 89.7259 169.854 82.3967C166.775 75.0675 161.6 68.8108 154.978 64.4113C148.356 60.0119 140.583 57.6655 132.633 57.6667ZM115.333 155.7V134.513C120.581 137.004 126.44 138.4 132.633 138.4C138.827 138.4 144.686 137.016 149.933 134.513V155.7L136.093 145.32C135.095 144.571 133.881 144.167 132.633 144.167C131.386 144.167 130.172 144.571 129.173 145.32L115.333 155.7Z" fill="url(#paint1_linear_782_359)"/>
</g>
<defs>
<linearGradient id="paint0_linear_782_359" x1="0" y1="86.5" x2="173" y2="86.5" gradientUnits="userSpaceOnUse">
<stop stop-color="#001FCC"/>
<stop offset="1" stop-color="#9D00FF"/>
</linearGradient>
<linearGradient id="paint1_linear_782_359" x1="92.2609" y1="115.333" x2="173.006" y2="115.333" gradientUnits="userSpaceOnUse">
<stop stop-color="#001FCC"/>
<stop offset="1" stop-color="#9D00FF"/>
</linearGradient>
<clipPath id="clip0_782_359">
<rect width="173" height="173" fill="white"/>
</clipPath>
</defs>
</svg>
