<svg width="32" height="32" viewBox="0 0 32 32" fill="none" xmlns="http://www.w3.org/2000/svg">
<path d="M19.5807 15.35L8.51172 13.4V27.809C8.51159 27.9656 8.54237 28.1207 8.6023 28.2654C8.66223 28.4101 8.75014 28.5415 8.86097 28.6522C8.9718 28.7628 9.10338 28.8505 9.24817 28.9102C9.39296 28.9699 9.54811 29.0004 9.70472 29H28.8047C28.9615 29.0007 29.1169 28.9703 29.2619 28.9108C29.4069 28.8512 29.5387 28.7635 29.6498 28.6529C29.7608 28.5422 29.8489 28.4107 29.9089 28.2659C29.969 28.121 29.9999 27.9658 29.9997 27.809V22.5L19.5807 15.35Z" fill="#185C37"/>
<path d="M19.5807 3H9.70472C9.54811 2.99961 9.39296 3.03013 9.24817 3.08982C9.10338 3.14951 8.9718 3.23719 8.86097 3.34784C8.75014 3.45848 8.66223 3.58992 8.6023 3.73461C8.54237 3.8793 8.51159 4.03439 8.51172 4.191V9.5L19.5807 16L25.4417 17.95L29.9997 16V9.5L19.5807 3Z" fill="#21A366"/>
<path d="M8.51172 9.5H19.5807V16H8.51172V9.5Z" fill="#107C41"/>
<path opacity="0.1" d="M16.4337 8.2H8.51172V24.45H16.4337C16.7494 24.4484 17.0517 24.3225 17.2752 24.0996C17.4987 23.8767 17.6254 23.5747 17.6277 23.259V9.391C17.6254 9.07534 17.4987 8.77332 17.2752 8.55039C17.0517 8.32746 16.7494 8.20157 16.4337 8.2Z" fill="black"/>
<path opacity="0.2" d="M15.7827 8.85001H8.51172V25.1H15.7827C16.0984 25.0984 16.4007 24.9725 16.6242 24.7496C16.8477 24.5267 16.9744 24.2247 16.9767 23.909V10.041C16.9744 9.72534 16.8477 9.42333 16.6242 9.2004C16.4007 8.97747 16.0984 8.85158 15.7827 8.85001Z" fill="black"/>
<path opacity="0.2" d="M15.7827 8.85001H8.51172V23.8H15.7827C16.0984 23.7984 16.4007 23.6725 16.6242 23.4496C16.8477 23.2267 16.9744 22.9247 16.9767 22.609V10.041C16.9744 9.72535 16.8477 9.42333 16.6242 9.2004C16.4007 8.97747 16.0984 8.85158 15.7827 8.85001Z" fill="black"/>
<path opacity="0.2" d="M15.1317 8.85001H8.51172V23.8H15.1317C15.4474 23.7984 15.7497 23.6725 15.9732 23.4496C16.1967 23.2267 16.3234 22.9247 16.3257 22.609V10.041C16.3234 9.72535 16.1967 9.42333 15.9732 9.2004C15.7497 8.97747 15.4474 8.85158 15.1317 8.85001Z" fill="black"/>
<path d="M3.194 8.85H15.132C15.4482 8.84973 15.7516 8.97503 15.9755 9.19836C16.1994 9.42168 16.3255 9.72477 16.326 10.041V21.959C16.3255 22.2752 16.1994 22.5783 15.9755 22.8016C15.7516 23.025 15.4482 23.1503 15.132 23.15H3.194C3.03731 23.1505 2.88205 23.1201 2.73715 23.0605C2.59224 23.0008 2.46054 22.9132 2.3496 22.8025C2.23866 22.6919 2.15067 22.5604 2.09068 22.4156C2.03068 22.2709 1.99987 22.1157 2 21.959V10.041C1.99987 9.8843 2.03068 9.72913 2.09068 9.58437C2.15067 9.43962 2.23866 9.30814 2.3496 9.19748C2.46054 9.08682 2.59224 8.99915 2.73715 8.93952C2.88205 8.87989 3.03731 8.84947 3.194 8.85Z" fill="url(#paint0_linear_101_1179)"/>
<path d="M5.7002 19.873L8.2112 15.989L5.9112 12.127H7.7582L9.0132 14.6C9.12919 14.834 9.2132 15.008 9.2512 15.124H9.2682C9.3502 14.9367 9.43686 14.7547 9.5282 14.578L10.8702 12.131H12.5702L10.2112 15.971L12.6302 19.876H10.8212L9.3712 17.165C9.30406 17.0483 9.24686 16.9262 9.2002 16.8H9.1762C9.13381 16.923 9.07745 17.0408 9.0082 17.151L7.5152 19.873H5.7002Z" fill="white"/>
<path d="M28.8061 3.00001H19.5811V9.50001H30.0001V4.19101C30.0002 4.03431 29.9694 3.87913 29.9094 3.73438C29.8494 3.58963 29.7614 3.45815 29.6505 3.34749C29.5395 3.23682 29.4078 3.14916 29.2629 3.08953C29.118 3.0299 28.9627 2.99948 28.8061 3.00001Z" fill="#33C481"/>
<path d="M19.5811 16H30.0001V22.5H19.5811V16Z" fill="#107C41"/>
<defs>
<linearGradient id="paint0_linear_101_1179" x1="4.494" y1="7.914" x2="13.832" y2="24.086" gradientUnits="userSpaceOnUse">
<stop stop-color="#18884F"/>
<stop offset="0.5" stop-color="#117E43"/>
<stop offset="1" stop-color="#0B6631"/>
</linearGradient>
</defs>
</svg>
