<svg width="116" height="48" viewBox="0 0 116 48" fill="none" xmlns="http://www.w3.org/2000/svg">
<path fill-rule="evenodd" clip-rule="evenodd" d="M9.92665 34.1513C7.6567 34.1513 5.8123 33.5491 4.38055 32.0847C2.98799 30.6608 2.4961 28.5088 2.4961 26.5276C2.4961 23.9249 3.74048 21.1903 5.37769 19.3066L6.63112 18.0247L7.74197 17.207C7.90651 17.0941 7.98319 17.0524 8.16754 16.9521C10.8622 15.4822 14.6294 15.3603 17.2026 17.1149C20.3852 19.285 20.4649 24.0354 19.1012 27.3768L18.4862 28.6969C16.9415 31.6595 13.7145 34.1513 9.92665 34.1513ZM0.000862305 26.7785V26.773C0.00129304 24.3764 0.861039 21.5888 2.27815 19.6461C2.391 19.4915 2.49523 19.3216 2.61885 19.165L3.30888 18.3099C3.42217 18.1778 3.54234 18.0287 3.67501 17.9012C4.28061 17.3214 4.59375 16.9434 5.36218 16.3719C6.7108 15.3697 7.98233 14.6963 9.7199 14.2605C12.0148 13.685 14.9106 13.7991 17.0303 14.6471C17.9921 15.0322 18.5077 15.3311 19.3175 15.9259C19.8865 16.344 20.5761 17.1511 20.9805 17.7246C21.3053 18.1852 21.5624 18.7009 21.7812 19.2213C22.9826 22.0789 22.5811 25.4341 21.3936 28.1328C20.7979 29.4863 19.88 30.9531 18.9169 31.9612C18.4474 32.4529 17.8327 33.1294 17.2706 33.5279L16.3342 34.2076C15.4792 34.7905 13.9144 35.4293 12.909 35.6854C10.4129 36.3214 7.73207 36.2097 5.36133 35.3463C4.6041 35.0706 3.78958 34.5478 3.21456 34.038C3.0147 33.861 2.92639 33.8508 2.61626 33.5448L1.57519 32.3168C0.468208 30.6364 0.000430732 28.7441 0 26.7781L0.000862305 26.7785Z" fill="#EF801C"/>
<path fill-rule="evenodd" clip-rule="evenodd" d="M83 35.3249C83 36.3087 83.5979 36.4633 84.9525 36.4633H95.6377C96.4815 36.4633 97.0587 36.2819 97.1767 35.5865C97.305 34.8297 96.6521 34.5819 95.8005 34.5819C93.3957 34.5819 90.9324 34.5135 88.5328 34.6315C87.5029 34.6822 86.3166 34.5819 85.3867 34.5819L85.6654 33.1037C85.8403 32.1444 87.6101 22.6975 87.6101 22.4041H98.2953C99.0008 22.4041 99.5427 22.0871 99.5427 21.4141C99.5427 20.5853 98.3246 20.6219 97.5359 20.6219C95.9642 20.6219 94.2408 20.557 92.7604 20.6687C92.1065 20.7178 90.083 20.671 89.1836 20.6714C88.7184 20.6714 88.3837 20.6219 87.9905 20.6219C87.9905 20.129 88.6413 17.1554 88.6413 16.7604H98.5671C99.1606 16.7604 100.357 16.6751 100.357 15.9683C100.357 15.1533 100.149 14.8791 98.8927 14.8791H88.4246C86.2417 14.8791 86.476 15.8129 86.178 17.5809C86.0978 18.0561 86.0125 18.4833 85.9294 18.9384C85.599 20.754 85.2829 22.5717 84.953 24.3838L83.2025 33.8751C83.1185 34.3164 83.0004 34.7747 83.0004 35.3242L83 35.3249Z" fill="#EF801C"/>
<path fill-rule="evenodd" clip-rule="evenodd" d="M38.7823 20.2609C38.2318 20.2609 37.1537 20.1936 36.754 20.2908C36.2651 20.41 36.2143 20.7306 35.9076 20.8053C35.8081 19.7134 33.8655 20.0855 33.1539 20.2228C32.4592 20.3569 31.8544 20.6283 31.2613 20.9209L30.2043 21.59C29.9355 21.7733 29.842 21.9019 29.6697 21.9436C29.6697 21.2828 30.091 20.1614 28.7475 20.1614C27.9391 20.1614 27.6888 20.8033 27.5424 21.3882L27.1749 23.3793C26.9329 24.7088 26.7037 26.0241 26.4384 27.3607C26.1713 28.7059 25.9525 30.0201 25.7104 31.3496C25.5903 32.0096 25.4628 32.7066 25.3461 33.3438C25.2823 33.6919 25.228 33.9889 25.1682 34.3201C25.0333 35.0643 24.6427 36.1869 25.8556 36.3171C26.9518 36.4347 27.2021 35.3219 27.3378 34.5679C27.6707 32.7219 28.9013 26.1036 29.2687 25.0931C29.5349 24.3611 29.9105 23.5614 30.5825 23.0745C31.1549 22.6595 32.1955 22.2898 33.1096 22.1631C34.0137 22.0376 35.5966 22.0903 35.7986 21.3996C36.0377 21.5593 35.9158 21.7367 36.266 21.9133C36.8651 22.2154 37.7916 22.0935 38.4562 22.0431C38.4459 22.4691 36.8647 30.7179 36.6739 31.7528C36.4417 33.0134 36.2406 34.6623 37.3867 35.5438C37.9247 35.9576 38.7952 36.1157 39.658 36.1936C40.1563 36.2384 40.5371 36.2246 41.0604 36.2502C41.318 36.2628 41.4391 36.3045 41.7664 36.3021C42.0912 36.3002 42.1623 36.2514 42.4681 36.2482C43.0026 36.2427 43.4273 36.2514 43.8102 36.087C44.2543 35.8962 44.4227 35.6429 44.4227 35.1611C44.4227 34.6053 43.9718 34.4735 43.4398 34.4247L41.7651 34.4188C38.7371 34.4188 38.3666 34.2579 38.9214 31.2292L40.5393 22.4089C40.5871 22.0703 40.5048 22.04 40.8912 22.0368C41.9012 22.029 42.9229 22.0423 43.9347 22.0427C44.8449 22.0427 45.7787 21.9708 45.7787 20.9536C45.7787 20.4702 45.2816 20.2605 44.7479 20.2605H40.9515C40.9515 19.6532 41.1328 19.0069 41.2543 18.4578C41.3219 18.1534 41.374 17.8442 41.424 17.5732C41.5498 16.8951 41.7686 15.8547 40.6254 15.8547C40.4708 15.8547 40.1107 15.9593 39.9965 16.0231C39.8242 16.1194 39.6916 16.2425 39.5843 16.3896C39.3203 16.7523 39.0705 18.4102 38.9951 18.9212C38.9619 19.1446 38.9214 19.3299 38.8865 19.5647C38.8534 19.7889 38.781 20.0214 38.781 20.2605L38.7823 20.2609Z" fill="#EF801C"/>
<path fill-rule="evenodd" clip-rule="evenodd" d="M52.0009 13.0164C52.0009 14.1834 52.0879 14.9009 52.8912 15.9161C53.2569 16.3783 54.0623 17.1107 54.6042 17.3726C54.5495 17.159 54.2997 16.9061 54.1265 16.6697C53.9529 16.4329 53.8112 16.2001 53.682 15.9369C53.0949 14.7404 53.1436 13.2221 53.5661 11.9701C53.654 11.7105 53.7436 11.4945 53.8629 11.2511C54.5745 9.79845 56.0579 7.95369 57.4014 7.00534C57.5336 6.91212 57.5668 6.86059 57.6822 6.76697L58.9193 5.86662C64.0583 2.35054 72.5265 0.194249 78.6856 1.53121C79.951 1.80616 81.0055 2.09684 81.997 2.61802C83.026 3.15886 83.7462 3.62851 84.4509 4.48717C86.757 7.2972 85.3675 10.5749 83.1501 12.9822C82.7189 13.4502 81.9725 14.2204 81.475 14.572C81.3156 14.6845 81.2635 14.7636 81.1037 14.8769C79.6543 15.9063 78.714 16.593 77.0044 17.373C76.7193 17.5032 75.3375 18.1109 75.2143 18.2639C76.1253 18.1947 79.7128 16.8927 80.607 16.5525C81.046 16.3857 81.4414 16.1902 81.8389 16.0431C83.465 15.4421 86.6235 13.4668 87.9441 12.457C88.1367 12.3099 88.2065 12.2077 88.4253 12.0551C88.9055 11.7199 90.5066 9.80829 90.8167 9.23755C91.5683 7.85417 91.9637 6.15809 91.1427 4.66614C90.6922 3.8476 90.2826 3.40942 89.5456 2.85678C87.9446 1.6563 85.672 1.00532 83.626 0.635971C81.9358 0.330738 79.6896 0.244598 77.9257 0.244598C77.4773 0.244598 77.2671 0.33192 76.7864 0.343327C76.5168 0.349621 76.5147 0.387379 76.2463 0.394852C75.0282 0.427893 74.6186 0.434187 73.3539 0.626137C70.0653 1.12529 66.635 1.91433 63.5755 3.08727L61.8482 3.78821C61.0066 4.10524 60.1848 4.56033 59.3931 4.96272C58.1405 5.59993 57.2123 6.26586 56.1139 7.06867L54.4819 8.45008C54.3634 8.5728 54.3462 8.62276 54.2105 8.74706L53.371 9.71349C52.7163 10.5053 52 12.0259 52 13.0164H52.0009Z" fill="#8A8A8A"/>
<path fill-rule="evenodd" clip-rule="evenodd" d="M46.8487 35.6851C47.288 35.6851 47.6598 35.4664 47.8588 35.2209C48.2977 34.6793 48.5772 32.3669 48.6836 31.6671C49.0644 29.1627 49.5942 24.9547 51.6884 23.0238C53.1059 21.7168 54.3973 21.1806 56.5031 21.1806C57.4994 21.1806 58.2519 21.5091 58.8769 22.083C60.1381 23.2402 59.641 25.5982 59.3627 27.0579L58.192 33.4147C58.0783 34.039 57.5231 35.6355 58.7808 35.6355C59.4084 35.6355 59.818 35.5065 60.064 34.8264C60.2475 34.3178 60.7954 31.0861 60.9194 30.4092C61.1059 29.3908 61.2752 28.4574 61.4617 27.4387C61.9196 24.9394 62.6057 22.5884 60.449 20.5981C59.759 19.9613 58.3604 19.3485 56.9907 19.3485C55.8919 19.3485 55.5396 19.3426 54.4537 19.6568C53.721 19.8688 52.9263 20.2504 52.3026 20.6638L51.0914 21.5386C50.8364 21.7541 50.783 21.8379 50.4819 22.0216C50.4819 21.7695 50.5594 21.4001 50.6064 21.1452C50.6564 20.8715 50.7059 20.5481 50.7606 20.2465L51.5893 15.8548C51.7521 15.0339 52.0511 13.9034 50.7528 13.9034C49.6338 13.9034 49.4934 15.2644 49.3736 16.0106C49.2143 17.0026 49.0355 17.9588 48.8624 18.9103L46.2047 33.316C46.0772 34.0071 45.5754 35.6855 46.8483 35.6855L46.8487 35.6851Z" fill="#F0801E"/>
<path fill-rule="evenodd" clip-rule="evenodd" d="M72.6477 34.436C71.5239 34.436 70.5707 34.2677 69.7824 33.833C68.7504 33.2638 68.0207 32.3737 67.6792 31.2975C67.5461 30.879 67.4828 30.5313 67.4078 30.0601C67.2756 29.227 67.3824 28.0183 67.534 27.2941C67.901 25.5437 68.8542 23.6081 70.4992 22.5748C72.2044 21.5037 74.5011 21.0605 76.3903 21.9109C78.3174 22.7778 79.3184 24.4408 79.3184 26.664C79.3184 27.9506 79.2426 28.9461 78.7533 30.1085C77.7859 32.4083 75.8144 34.436 72.6472 34.436H72.6477ZM65 28.941C65 30.6871 65.2356 31.943 66.1492 33.3378L66.7221 34.0529C66.8255 34.1587 66.8418 34.1976 66.94 34.2995C67.1041 34.4706 67.22 34.53 67.3992 34.6724C69.2918 36.1801 72.2553 36.4468 74.6773 35.9413C75.7106 35.7258 77.1428 35.087 77.922 34.4474L78.8459 33.6572C81.1064 31.5139 82.0901 28.1662 81.5517 25.2204C81.463 24.7366 81.3372 24.2355 81.1641 23.8414C80.5778 22.5072 80.0067 21.8039 78.7546 20.9417C76.9657 19.7101 74.4128 19.5429 72.254 19.9677C70.2963 20.3532 68.9877 21.2221 67.6434 22.443C65.9851 23.9491 65 26.828 65 28.941Z" fill="#EF801C"/>
<path fill-rule="evenodd" clip-rule="evenodd" d="M101.254 21.0946C101.254 22.5165 101.679 23.6742 102.295 24.5505C102.86 25.3561 103.248 25.701 104.004 26.2584C104.23 26.4256 104.525 26.5872 104.672 26.7874C103.953 27.1348 102.04 28.5701 101.431 29.1262C101.244 29.297 101.128 29.3902 100.96 29.588C100.517 30.1124 100.274 30.2842 99.6501 31.0654C98.8636 32.0503 98 33.6225 98 34.906C98 36.0518 99.2836 36.4345 100.007 35.1042C100.402 34.3785 100.813 33.18 101.257 32.4822C102.384 30.7083 103.535 29.7855 105.252 28.6043C105.532 28.4115 106.339 27.8762 106.624 27.8762C106.991 27.8762 108.732 29.4358 109.25 30.1328C109.816 30.8931 110.278 32.0507 110.418 32.9775C110.458 33.2355 110.45 33.4282 110.483 33.7106C110.542 34.2129 110.564 35.9456 111.451 35.9456C112.743 35.9456 112.813 34.5217 112.707 33.6611C112.638 33.1069 112.729 32.9464 112.541 32.0795C112.361 31.2479 111.97 30.2237 111.474 29.5389C110.987 28.8655 110.393 28.0933 109.693 27.6001C109.504 27.4667 108.814 26.9133 108.686 26.7375C108.937 26.3945 110.601 25.6625 111.74 24.4262C112.411 23.697 114.434 21.3452 113.415 20.0947C113.231 19.869 113.023 19.7577 112.645 19.7577C111.405 19.7577 111.424 21.4176 110.893 22.3163C110.229 23.4381 109.334 24.0478 108.221 24.7783C106.792 25.716 106.869 25.8721 105.873 25.1468C105.601 24.9486 105.424 24.8255 105.174 24.5961C104.699 24.1607 104.345 23.8394 104.021 23.2726C102.772 21.0864 104.34 19.7573 102.395 19.7573C101.587 19.7573 101.256 20.4625 101.256 21.0938L101.254 21.0946Z" fill="#EF801C"/>
<path fill-rule="evenodd" clip-rule="evenodd" d="M86.7358 43.3832C86.7393 43.5311 87.0671 44.8755 87.1153 44.9676L85.6508 45.0171V41.1061H88.3627V44.9676C87.9294 44.9676 88.019 44.94 87.6576 45.0171L87.1153 43.1857C86.9607 43.2605 86.8776 43.2971 86.7358 43.3836V43.3832ZM85 41.1557V44.8684C85 46.2333 86.0613 45.8585 87.3324 45.8585C87.475 46.4166 87.6223 46.9771 87.7662 47.5416H88.3085L87.9901 46.1928C87.9242 45.9615 87.842 45.9116 88.0914 45.8616C88.5609 45.7676 89.0136 46.0685 89.0136 44.4724C89.0136 43.8686 89.0717 41.2186 88.9153 40.7502C88.8124 40.4426 88.6233 40.2644 88.1999 40.2644C87.5499 40.2644 85.6513 40.1578 85.2593 40.4516C85.0965 40.5736 85 40.8882 85 41.1553V41.1557Z" fill="#8A8A8A"/>
<path fill-rule="evenodd" clip-rule="evenodd" d="M76.3867 45.0181H74.7051C74.6995 44.7943 74.6508 44.8214 74.6508 44.5725V43.3846H76.4948C77.0677 43.3846 76.9285 43.995 76.9285 44.622C76.9285 44.917 76.7097 45.0181 76.3862 45.0181H76.3867ZM76.8204 42.4933C76.4414 42.4933 76.2911 42.5428 75.8982 42.5428C75.4029 42.5428 75.0648 42.5814 74.6508 42.4933C74.6508 41.9662 74.7051 41.585 74.7051 41.1071H76.4952C77.0009 41.1071 76.8747 41.4875 76.8747 42.1467C76.8747 42.3155 76.842 42.341 76.8204 42.4933ZM74 40.4141V45.8595L76.3333 45.8603C77.5983 45.8681 77.5798 45.2647 77.5798 44.2755C77.5798 44.0328 77.5522 43.7221 77.4932 43.5132C77.3812 43.1155 77.2555 43.1926 77.0918 42.9885C77.2008 42.8528 77.5255 42.8186 77.5255 42.1471C77.5255 39.9137 77.6496 40.2658 74.1628 40.2658C74.0379 40.2658 74 40.3 74 40.4145V40.4141Z" fill="#8B8B8B"/>
<path fill-rule="evenodd" clip-rule="evenodd" d="M45.2415 42.5299H47.0854V44.0647C46.2093 44.0647 45.5249 44.0151 44.6449 44.0151C44.6393 43.7878 44.5906 43.7567 44.5906 43.2229C44.4636 43.2784 44.2198 43.3582 44.0484 43.3716C44.0484 43.6194 43.9889 43.6025 44.0018 43.8098C44.0074 43.9011 44.038 44.1017 44.0561 44.2558C44.0936 44.5792 44.2013 44.7743 44.5252 44.8671C44.7591 44.934 46.2946 44.9556 46.706 44.9556C47.1311 44.9556 47.4283 44.7916 47.5519 44.4899C47.7458 44.0171 47.7109 42.5236 47.5425 42.0142C47.4214 41.6476 47.0902 41.5894 46.5979 41.5894H44.7539V40.1537H47.032V40.8963C47.6656 40.619 47.6286 40.8405 47.6286 40.1537C47.6286 39.3733 47.1195 39.308 46.2727 39.3119C45.5512 39.3151 44.6613 39.1066 44.3529 39.59C44.1707 39.8756 44.1255 40.5305 44.1039 40.9007C44.091 41.128 44.1509 41.1418 44.1578 41.3908C44.1802 42.2062 44.315 42.5299 45.2419 42.5299H45.2415Z" fill="#8A8A8A"/>
<path fill-rule="evenodd" clip-rule="evenodd" d="M66.8987 45.0166C66.1496 45.0166 65.6513 45.1197 65.6513 44.8679V41.2543C65.6513 41.0262 65.9566 41.1056 66.5735 41.1056C68.3179 41.1056 68.255 42.1346 68.255 43.3827C68.255 43.8445 68.1409 44.2575 67.9316 44.5234C67.8239 44.6602 67.7171 44.7696 67.534 44.8534C67.3854 44.9218 67.0972 45.0162 66.8991 45.0162L66.8987 45.0166ZM65.1628 40.2643H65V45.8584C65.805 45.8584 67.5594 46.1431 68.2942 45.3506C68.9731 44.6193 68.905 43.6541 68.905 42.6904C68.905 39.8678 66.8892 40.2647 65.1624 40.2647L65.1628 40.2643Z" fill="#8A8A8A"/>
<path fill-rule="evenodd" clip-rule="evenodd" d="M56.5966 42.1269C56.5966 41.741 56.6508 41.5428 56.6508 41.1369C56.9739 41.0684 58.4392 40.9949 58.6055 41.234C58.7343 41.4193 58.7739 42.4459 58.6034 42.7704C58.0968 42.8782 57.1845 42.9336 56.6508 42.82C56.6508 42.5025 56.5966 42.4109 56.5966 42.1269ZM56 45.8396H56.6508C56.6508 45.5572 56.5966 45.4974 56.5966 45.1961C56.5966 44.6982 56.5246 44.0051 56.7051 43.6613H57.5188L58.3143 45.0144C58.9057 46.0957 58.739 45.8396 59.6341 45.8396L58.2781 43.6613C59.5087 43.6613 59.3632 43.1771 59.3632 41.5821C59.3632 41.3091 59.327 40.8717 59.2649 40.6818C59.168 40.3864 59.0069 40.2455 58.6038 40.2455H56.0004V45.8396H56Z" fill="#8A8A8A"/>
<path fill-rule="evenodd" clip-rule="evenodd" d="M38 41.4859V44.5056C38 45.0185 38.0543 45.336 38.0543 45.8422H38.6508V41.6838L41.0375 45.2974C41.1349 45.4319 41.3201 45.6738 41.3632 45.8422H41.8512V40.2481H41.2546V44.4065L39.1905 41.2413C38.4729 40.1399 38.6603 40.2485 38.0547 40.2485C38.0547 40.7225 38.0004 41.0045 38.0004 41.4859H38Z" fill="#8B8B8B"/>
<path fill-rule="evenodd" clip-rule="evenodd" d="M49.8679 41.8947H49.6508L49.7051 40.162C50.374 40.162 51.3066 40.0857 51.8204 40.3107C51.9161 40.6859 51.8747 40.9514 51.8747 41.3999C51.8747 41.9037 51.6296 41.8549 51.1248 41.9033C50.6277 41.9505 50.4115 41.8947 49.8679 41.8947ZM49.0543 39.3206C49.0543 39.6664 49 39.8037 49 40.162V44.9143C49.9222 44.9143 49.7163 45.0449 49.6383 42.7364L51.8747 42.736C52.3959 42.736 52.5255 42.2278 52.5255 41.746C52.5255 39.6511 52.8021 39.3112 51.1692 39.3206C50.7427 39.323 50.5541 39.2691 50.1397 39.2699C49.6956 39.2707 49.4768 39.3203 49.0543 39.3203V39.3206Z" fill="#8B8B8B"/>
<path fill-rule="evenodd" clip-rule="evenodd" d="M61 40.3088V45.8534H64.3627C64.3627 44.7799 64.7693 45.0116 61.6508 45.0116V43.5264C61.6508 43.4123 61.6887 43.3777 61.8137 43.3777H63.2781V42.5363H61.8137C61.6887 42.5363 61.6508 42.5017 61.6508 42.3876V41.1006H64.3085V40.2593C63.22 40.2593 62.0747 40.2062 61 40.3088Z" fill="#8B8B8B"/>
<path fill-rule="evenodd" clip-rule="evenodd" d="M91.0004 44.9082C91.0004 45.5041 91.1551 45.8389 91.8115 45.851C92.3547 45.8613 93.9785 45.9494 94.3442 45.7323C94.7461 45.4935 94.6113 44.765 94.6737 44.3497L94.6884 40.4029C94.6884 40.1917 94.4799 40.2542 93.9833 40.2542V45.0065C93.6042 45.0065 93.4539 44.957 93.0611 44.957H91.6509V40.4025C91.6509 40.1956 91.4626 40.2538 91 40.2538V44.907L91.0004 44.9082Z" fill="#8B8B8B"/>
<path fill-rule="evenodd" clip-rule="evenodd" d="M98.0611 41.2352H98.1696C98.2678 41.6207 98.4479 42.0227 98.584 42.4412L98.9833 43.7105H97.3017L98.0611 41.2352ZM96 45.8392H96.5966C96.6702 45.6988 96.7378 45.3712 96.7913 45.1753C96.8981 44.7808 96.9825 44.7403 97.0307 44.5522H99.2546L99.4528 45.1635C99.5156 45.3826 99.6289 45.6131 99.6345 45.8396H100.394L98.6779 40.9701C98.5943 40.7364 98.4965 40.4619 98.4414 40.2455H97.8448L97.39 41.6124C97.2711 41.9357 96.0224 45.6025 96.0009 45.8392H96Z" fill="#8A8A8A"/>
<path fill-rule="evenodd" clip-rule="evenodd" d="M107 41.0869H108.519V45.8392H109.17V41.0869H110.743C110.743 40.524 110.83 40.2455 110.58 40.2455H107V41.0869Z" fill="#8B8B8B"/>
<path fill-rule="evenodd" clip-rule="evenodd" d="M112.681 43.7109V45.8396H113.332V43.7109C113.332 42.96 114.958 40.8568 115.014 40.2455H114.308L113.007 42.5722L111.705 40.2455H111C111.144 40.8092 111.961 42.0994 112.32 42.7539C112.481 43.0481 112.682 43.3014 112.682 43.7109H112.681Z" fill="#8A8A8A"/>
<path fill-rule="evenodd" clip-rule="evenodd" d="M79.9845 45.8464H80.3101V43.8168C80.3101 43.3393 80.4377 43.1874 80.6173 42.8598C80.9102 42.326 81.9284 40.611 81.937 40.2527C81.1871 40.2527 81.2599 40.084 80.6819 41.3844C80.5699 41.6365 80.1848 42.4566 79.9845 42.5793C79.9436 42.4397 79.8945 42.411 79.8114 42.2922L79.3345 41.3906C79.2294 41.1767 79.1433 41.0005 79.0395 40.7688C78.7651 40.1571 78.719 40.2531 78.1401 40.2531C77.855 40.2531 78.0695 40.5017 78.2172 40.8262C78.3232 41.0587 78.4339 41.2349 78.5558 41.4579C78.8013 41.9059 79.0382 42.289 79.279 42.7284C79.8058 43.6897 79.6632 43.8687 79.6585 45.2533C79.6554 46.145 79.661 45.8472 79.9841 45.8472L79.9845 45.8464Z" fill="#8A8A8A"/>
<path fill-rule="evenodd" clip-rule="evenodd" d="M100 40.8894V45.8396H103.2V44.9979L100.651 44.9483L100.718 42.5726C100.733 41.7501 100.651 41.0747 100.651 40.2455H100.054C100.054 40.528 100 40.5878 100 40.8891V40.8894Z" fill="#8B8B8B"/>
<path fill-rule="evenodd" clip-rule="evenodd" d="M53 40.8891V44.8988C53 45.2874 53.0543 45.4616 53.0543 45.8392H53.7051C53.7051 45.1375 53.6508 44.6144 53.6508 43.9087V40.2455H53.0543C53.0543 40.528 53 40.5878 53 40.8891Z" fill="#8B8B8B"/>
<path fill-rule="evenodd" clip-rule="evenodd" d="M37 45.8392H37.5966C37.5966 45.3653 37.6508 45.0832 37.6508 44.6018V41.5821C37.6508 41.0692 37.5966 40.7518 37.5966 40.2455H37V45.8396V45.8392Z" fill="#8B8B8B"/>
<path fill-rule="evenodd" clip-rule="evenodd" d="M105 45.8396H105.651L105.651 43.4135C105.655 42.7826 105.523 42.0734 105.636 41.3213C105.698 40.9083 105.605 40.5657 105.597 40.2455H105V45.8396H105Z" fill="#8B8B8B"/>
</svg>
